<svg id="Warstwa_1" data-name="Warstwa 1" xmlns="http://www.w3.org/2000/svg" viewBox="0 0 589.04 215.07"><defs><style>.cls-1{fill:#029fd8;}.cls-2,.cls-3,.cls-7{fill:#fff;}.cls-13,.cls-3,.cls-4,.cls-7{stroke:#000;}.cls-3,.cls-4{stroke-linejoin:round;}.cls-3,.cls-4,.cls-7{stroke-width:3px;}.cls-13,.cls-4,.cls-6{fill:none;}.cls-5{fill:#ff2468;}.cls-13,.cls-7{stroke-miterlimit:10;}.cls-8{fill:#1772ff;}.cls-9{fill:#ef6fb9;}.cls-10{fill:#e92a78;}.cls-11{fill:#2e44ff;}.cls-12{fill:#fa6900;}.cls-13{stroke-width:0.25px;}</style></defs><title>logonimranos</title><path d="M785.58,258.94c-.42-1-.78-1.75-1-2.23a10.44,10.44,0,0,0-1.77-2.56l-.17-.18-.18-.17-.18-.18-.18-.17-.18-.18-.18-.17c-.06-.06-.11-.12-.18-.18l-.17-.17-.18-.18-.18-.17-.18-.17-.18-.18-.18-.17-.17-.18-.18-.17-.18-.18-.18-.17-.18-.18-.18-.17-.18-.18-.17-.17-.18-.18-.18-.17-.18-.18-.18-.17-.18-.18-.18-.17-.17-.17-.18-.18-.18-.17-.18-.18-.18-.17c-.06-.06-.11-.12-.18-.18l-.17-.17-.18-.18-.18-.17-.18-.18-.18-.17-.18-.18-.18-.17-.17-.18-.18-.17-.18-.17-.18-.18-.18-.17-.18-.18c-.06-.06-.11-.12-.17-.17l-.18-.18-.18-.17-.18-.18-.18-.17-.18-.18-.18-.17-.17-.18-.18-.17-.18-.18-.18-.17-.18-.17-.18-.18a1.45,1.45,0,0,0-.18-.17l-.17-.18-.18-.17-.18-.18-.18-.17-.18-.18-.18-.17-.17-.18-.18-.17-.18-.18-.18-.17-.18-.18-.18-.17c-.06-.06-.11-.12-.18-.18l-.17-.17-.18-.17-.18-.18-.18-.17-.18-.18-.18-.17c-.06-.06-.11-.12-.18-.18l-.17-.17-.18-.18-.18-.17-.18-.18-.18-.17-.18-.18c-.06-.05-.11-.11-.17-.17l-.18-.18-.18-.17-.18-.18-.18-.17-.18-.17-.18-.18c-.06-.06-.11-.12-.17-.17l-.18-.18-.18-.17-.18-.18-.18-.17-.18-.18-.17-.17-.18-.18-.18-.17-.18-.18-.18-.17-.18-.18-.18-.17-.17-.17-.18-.18-.18-.17-.18-.18c-.11-.1-1.57-1.44-2.68-2.26a57.56,57.56,0,0,0-8.27-4.76,42.93,42.93,0,0,0-6.08-2.38c-1.11-.33-2.16-.58-3.13-.79a63.42,63.42,0,0,0-12.81-1.21c-.11,0-1.19,0-2.24,0a113.81,113.81,0,0,0-25.39,3.3q-5.82,1.37-11.8,3.33a51.39,51.39,0,0,0,2-16.48l-.07-1.05-.3-1a10.41,10.41,0,0,0-2.56-4.19l-.18-.17-.18-.18-.17-.17-.18-.17-.18-.18-.18-.17-.18-.18-.19-.18c0-.06-.11-.11-.17-.17l-.17-.17-.18-.18-.18-.17-.19-.18a1.37,1.37,0,0,0-.17-.17l-.18-.18-.18-.17-.17-.18-.18-.17-.19-.18c0-.06-.11-.11-.17-.17l-.18-.17-.18-.18c0-.06-.12-.12-.17-.17l-.19-.19-.17-.16-.18-.18-.18-.17-.18-.18-.17-.17-.19-.18-.17-.17-.18-.18-.18-.17-.18-.18-.18-.17-.18-.18c-.06-.06-.12-.11-.17-.17l-.18-.17-.18-.18-.18-.17c-.06-.07-.12-.12-.19-.19l-.17-.16-.17-.18-.18-.17-.18-.18-.18-.17-.19-.18c0-.06-.11-.11-.17-.17s-.12-.12-.18-.18l-.17-.17-.18-.17-.19-.19-.17-.16-.18-.18a1.45,1.45,0,0,0-.18-.17l-.17-.18-.18-.17c-.06-.06-.13-.12-.19-.19l-.17-.16-.18-.18-.18-.17c0-.06-.12-.12-.18-.18l-.18-.18-.17-.17-.18-.17-.18-.18-.18-.17a1.45,1.45,0,0,0-.18-.17l-.18-.19-.17-.16-.18-.18-.18-.17-.18-.18-.19-.18-.17-.17c0-.06-.12-.11-.18-.17l-.17-.18-.18-.17-.18-.18-.19-.18c0-.06-.11-.11-.17-.17l-.18-.17c0-.06-.12-.12-.17-.17l-.18-.18-.18-.17c-.06-.07-.13-.13-.19-.19l-.17-.16-.18-.18c-.05-.06-.12-.11-.18-.17l-.17-.18-.19-.18-.17-.17-.18-.17L673,191c0-.06-.12-.11-.18-.17l-.17-.18-.19-.18c-.06-.06-.12-.11-.17-.17l-.18-.17L672,190l-.18-.18-.18-.18c-.06-.06-.12-.11-.17-.17l-.18-.17-.18-.18-.18-.17-.18-.18-.19-.18c0-.06-.11-.11-.17-.17s-.12-.11-.17-.17a10.91,10.91,0,0,0-8.25-3.19,52.1,52.1,0,0,0-5.75.44,48.29,48.29,0,0,0-13.61,3.7,20.1,20.1,0,0,0-6.46,4.3l-.12-.12-.18-.17c-.06-.06-.11-.12-.18-.18l-.17-.17-.18-.18-.18-.17-.18-.17-.18-.18-.18-.17-.17-.18-.18-.17-.18-.18-.18-.17-.18-.18-.18-.17-.18-.18c-.06-.05-.11-.12-.17-.17l-.18-.18-.18-.17-.18-.18-.18-.17-.18-.18-.18-.17c-.06-.06-.11-.12-.17-.17A26,26,0,0,0,613.59,182c-12.33,0-23,5.59-31,16.18-.8,1.08-1.56,2.17-2.28,3.28a.94.94,0,0,1-.1-.1l-.18-.17-.18-.18-.18-.17-.18-.18c0-.06-.11-.11-.17-.17a18.92,18.92,0,0,0-13.61-5.62,19.16,19.16,0,0,0-6.62,1.17l-.17-.17-.18-.18-.18-.17-.18-.18a19.29,19.29,0,0,0-6.6-4.33,46.32,46.32,0,0,0-13-3.33,51.66,51.66,0,0,0-5.3-.37c-8,0-10.25,5.53-10.75,7.22l-.11.37-.08.37c-.78,3.7-2.07,9.14-3.86,16.26l-.17-.17-.18-.17-.18-.18c0-.06-.12-.11-.18-.17a1.37,1.37,0,0,0-.17-.17l-.18-.18-.18-.17-.18-.18-.18-.17-.18-.18c0-.06-.12-.11-.17-.17l-.18-.18-.18-.17-.18-.18-.18-.17-.18-.18-.18-.17-.17-.18-.18-.17-.18-.18-.18-.17-.18-.17-.18-.18a1.45,1.45,0,0,0-.18-.17l-.17-.18-.18-.17-.18-.18-.18-.17-.18-.18-.18-.17-.17-.18-.18-.17-.18-.18-.18-.17-.18-.18-.18-.17-.18-.17c-.05-.07-.12-.12-.17-.18l-.18-.17-.18-.18-.18-.17-.18-.18L511,204c0-.06-.12-.12-.18-.18l-.17-.17-.18-.18-.18-.17-.18-.18-.18-.17-.18-.18c0-.06-.12-.11-.17-.17l-.18-.18-.18-.17-.18-.17-.18-.18-.18-.17-.18-.18c0-.06-.12-.11-.17-.17l-.18-.18L508,201l-.18-.18-.18-.17-.18-.18-.18-.17-.17-.18-.18-.17-.18-.18-.18-.17-.18-.18a15.45,15.45,0,0,0-9.09-4.51,19.35,19.35,0,0,0-2.54-.17,23.35,23.35,0,0,0-7.56,1.36,41.14,41.14,0,0,0-8.61,4.3,50.36,50.36,0,0,0-5,3.79l0,0-.23-.28-.72-.66-.31-.39-.84-.74a1.13,1.13,0,0,1-.1-.13l-.74-.68-.29-.37-.86-.76a.48.48,0,0,0-.09-.11l-.75-.71c-.1-.11-.18-.23-.28-.34L467.13,198l-.1-.06-.08-.12-.08,0-.1-.13,0,0-.13-.15-1.21-.75a17.15,17.15,0,0,0-7.59-2.45c-.38,0-.76-.05-1.16-.05a14.82,14.82,0,0,0-6.59,1.62l-.16-.15-.18-.18-.18-.17c-.06-.06-.11-.12-.18-.18s-.11-.11-.17-.17l-.18-.18-.18-.17a19.09,19.09,0,0,0-6-3.74A47.44,47.44,0,0,0,430,187.64a51.66,51.66,0,0,0-5.3-.37c-8,0-10.24,5.52-10.74,7.21l-.12.4-.09.42c-.39,1.93-.92,4.31-1.58,7.11l-.06-.06-.18-.18-.18-.17-.17-.16-.19-.19-.18-.18-.18-.17-.17-.17-.18-.18-.17-.16-.19-.19-.18-.17a18.91,18.91,0,0,0-13.59-5.6c-5.85,0-11.21,2.5-16.32,7.76l0,0-.24-.25-.18-.17-.18-.17-.18-.18-.11-.11-.25-.24-.17-.18-.18-.17-.18-.17-.18-.18-.11-.11-.25-.24-.17-.17A17.86,17.86,0,0,0,366.88,195l-.44-.41c-.28-.3-.57-.59-.88-.87s-.7-.72-1.08-1.06-.69-.7-1.07-1-.58-.59-.89-.87a13.47,13.47,0,0,0-1.08-1c-.28-.3-.57-.59-.88-.87s-.7-.72-1.08-1.06a13.17,13.17,0,0,0-1.26-1.21h0l-.17-.16h0l-.17-.15a22.12,22.12,0,0,0-8.5-4.37,55.46,55.46,0,0,0-5.59-1.16l-1.47-.25a34.34,34.34,0,0,0-3.74-.44,11.9,11.9,0,0,0-.67-2.8,13,13,0,0,0-3.33-4.87l-.18-.18-.2-.19-.16-.16-.18-.17-.18-.18-.18-.17-.17-.18-.2-.18-.16-.16-.18-.18-.18-.17c-.06-.06-.11-.12-.18-.18l-.19-.19-.16-.16-.18-.17-.18-.18-.18-.17-.18-.18-.19-.19-.17-.16c-.06,0-.11-.11-.17-.17l-.18-.18-.18-.17-.19-.19-.17-.16-.18-.17-.17-.18-.18-.17-.18-.18-.19-.19-.17-.16-.18-.17-.17-.18-.18-.17-.18-.18-.19-.18-.17-.17-.18-.17c-.06-.06-.11-.12-.18-.18l-.17-.17-.2-.19-.16-.16-.18-.17-.18-.18-.18-.17-.17-.18-.2-.19-.16-.16-.18-.17-.18-.18-.18-.17-.19-.19-.17-.16-.17-.18-.18-.17-.18-.18-.18-.17-.19-.19L324,162c-.06-.06-.11-.12-.17-.17l-.18-.18-.18-.17-.19-.19-.17-.16L323,161l-.18-.17-.17-.18-.18-.17-.2-.19c-.05-.05-.1-.11-.16-.16l-.18-.18-.18-.17-.17-.18-.2-.18-.16-.16L321,159l-.18-.17-.18-.18c-.06-.06-.11-.12-.17-.17l-.2-.19-.16-.16-.18-.18-.18-.17-.18-.18-.18-.17-.19-.19-.16-.16-.18-.18-.18-.17-.18-.17-.19-.19-.17-.16-.18-.18c-.06-.06-.11-.12-.17-.17l-.18-.18-.18-.17c-.06-.07-.13-.13-.19-.19l-.17-.16-.18-.18-.17-.17-.18-.18-.2-.18-.16-.17-.18-.17-.18-.17-.17-.18-.18-.17-.2-.19-.16-.16-.18-.18a19.74,19.74,0,0,0-5.79-3.77,50.43,50.43,0,0,0-13.28-3.79,47.93,47.93,0,0,0-6.37-.61c-6.1,0-9.37,3.71-10.4,7.18l-.1.36-.07.37c-.3,1.41-.9,4.33-1.81,8.81l-.19-.17a13.56,13.56,0,0,0-1.62-1.59c-.11-.12-.24-.23-.36-.34a11.77,11.77,0,0,0-1-1,13.8,13.8,0,0,0-1.63-1.61l-.35-.32a15.52,15.52,0,0,0-1.63-1.61l-.35-.32a14.65,14.65,0,0,0-3.2-2.74,17.13,17.13,0,0,0-5.2-2.62,40.72,40.72,0,0,0-8.21-2.61c-3.07-.68-5.63-1.16-7.82-1.42a29.26,29.26,0,0,0-3.64-.22,10.06,10.06,0,0,0-10,7.93h0c-2.29,11-10.67,46.92-24.92,104.86l0,.25c-.18.79-.44,1.83-.79,3.2s-.68,2.63-.85,3.57c-4.34,17.54-4,21.63-3.14,24.56l0,.12a12.2,12.2,0,0,0,2.53,4.54c.1.12.19.23.3.34a12.57,12.57,0,0,0,1.15,1.16,11.69,11.69,0,0,0,1.06,1,12.39,12.39,0,0,0,.9.87,11.82,11.82,0,0,0,1.07,1.05,12.39,12.39,0,0,0,.9.87,13.16,13.16,0,0,0,1.06,1.05,11.91,11.91,0,0,0,1.07,1.06,12.11,12.11,0,0,0,.89.86,13.39,13.39,0,0,0,1.07,1.06,12.28,12.28,0,0,0,.9.86,11.91,11.91,0,0,0,1.07,1.06,10.55,10.55,0,0,0,.9.86,11.78,11.78,0,0,0,1.06,1.06,12.28,12.28,0,0,0,.9.86,158.91,158.91,0,0,0,2.13,2.11,12.39,12.39,0,0,0,.9.87,11.82,11.82,0,0,0,1.07,1.05,12.22,12.22,0,0,0,.89.87,13.53,13.53,0,0,0,1.45,1.37,14.91,14.91,0,0,0,10.22,3.61,14.58,14.58,0,0,0,9.6-4.68,14.16,14.16,0,0,0,2.56-4.64,40.43,40.43,0,0,0,2.6-13.94,40.55,40.55,0,0,0,2.76,9.88,39.53,39.53,0,0,0,3.75,6.91c2.78,6.35,3.42,7.68,3.51,7.76l.18.18.17.17.18.17.18.18.18.17.18.18.18.17.18.18.17.17.18.18.18.17.18.18.18.17.18.18.18.17.17.18.18.17.18.18.18.17.18.18.18.17.17.17.18.18.18.17.18.18.18.17.18.18.18.17.17.18.18.17.18.18.18.17.18.18.18.17.18.17.17.18.18.17.18.18.18.17.18.18.18.17.17.18.18.17.18.18.18.17.18.18.18.17.18.18c.06,0,.11.11.17.17l.18.18.18.17.18.17.18.18.18.17.18.18.17.17.18.18.18.17.18.18.18.17.18.18.18.17.17.18.18.17.18.18.18.17.18.18.18.17.17.17.18.18.18.17.18.18.18.17.18.18.18.17.17.18.18.17.18.18.18.17.18.18.18.17.17.18.18.17.18.17.18.18.18.17.18.18.18.17.17.18.18.17.18.18.18.17.18.18.18.17.18.18.17.17.18.18.18.17.18.18.18.17.18.17.17.18.18.17.18.18.18.17.18.18.18.17.18.18.17.17.18.17h0a18.42,18.42,0,0,0,4,2.69c9.93,3.9,17.42,3.5,17.42,3.5,18.69-1,41.23-13.32,58.63-14.37a67.92,67.92,0,0,1,12.37.5A59,59,0,0,1,384.58,334a60.06,60.06,0,0,1,12.94,6.67l0,0,.16.15,0,0,.16.14,0,0,.15.15,0,0,.15.14,0,0,.16.15,0,0,.16.14,0,0,.16.15,0,0,.16.15,0,0,.16.15,0,0,.15.15,0,0,.15.15,0,0,.16.15,0,0,.16.15,0,0,.16.15,0,0,.16.14,0,0,.15.15,0,0,.15.14,0,0,.16.15,0,0,.16.14,0,0,.16.15,0,0,.16.14,0,0,.16.15,0,0,.15.15,0,0,.15.15,0,0,.16.15,0,0,.16.15,0,0,.16.15,0,0,.16.15,0,0,.15.15,0,0,.15.15,0,0,.15.15,0,0,.16.14,0,0,.16.15,0,0,.16.14,0,0,.16.15,0,0,.15.14,0,0,.15.15,0,0,.16.14,0,0,.16.15,0,0,.16.15,0,0,.16.15,0,0,.16.15,0,0,.15.15,0,0,.15.15,0,0,.16.15,0,0,.16.15,0,0,.16.14,0,0,.16.15,0,0,.15.14,0,0,.15.15,0,0,.15.14,0,0,.16.15,0,0,.16.14,0,0,.16.15,0,0,.16.15,0,0,.15.15,0,0,.15.15,0,0,.16.15,0,0,.16.15,0,0,.16.15,0,0,.16.15,0,0,.16.15,0,0,.15.15,0,0,.15.14,0,0,.16.15,0,0,.16.14,0,0,.16.15,0,0,.16.14,0,0,.15.15,0,0,.15.14,0,0,.16.15,0,0,.16.15,0,0,.16.15,0,0,.16.15,0,0,.16.15,0,0,.15.15,0,0,.15.15,0,0,.16.15,0,0,.16.14,0,0,.16.15,0,0,.16.14,0,0,.16.15,0,0,.5.47A15.25,15.25,0,0,0,423.25,360h0a14,14,0,0,0,9.95-4.3,33.36,33.36,0,0,0,7.05-11.18c1.7-4.2,4.25-10.54-.29-15.63l-.15-.17-.16-.17c-.79-.8-1.58-1.58-2.38-2.35l-.18-.17-.18-.17-.18-.18-.18-.17-.17-.18-.18-.17L436,325l-.18-.17-.18-.18-.18-.17-.18-.18c-.06,0-.11-.11-.17-.17l-.18-.18-.18-.17-.18-.18-.18-.17-.18-.17-.17-.18-.18-.17-.18-.18-.18-.17-.18-.18-.18-.17L433,322l-.17-.17-.18-.18-.18-.17-.18-.18-.18-.17-.18-.18c-.06,0-.11-.11-.17-.17l-.18-.18-.18-.17-.18-.18-.18-.17-.18-.17-.18-.18-.17-.17-.18-.18-.18-.17L430,319l-.18-.17-.18-.18-.18-.17-.17-.18-.18-.17-.18-.18-.18-.17-.18-.18-.18-.17-.18-.17-.17-.18-.18-.17-.18-.18-.18-.17-.18-.18-.18-.17-.1-.11a14.61,14.61,0,0,0,9.8,2.37,13.57,13.57,0,0,0,4.94-1.66,15.71,15.71,0,0,0,5.45-4.12c2.64-3.18,2.88-6.31,4.16-11.89a109.75,109.75,0,0,1,3.48-11.9,26.94,26.94,0,0,0,2.65,3.11c0,.06.11.11.17.17l.18.18.18.17.18.18.18.17.18.18.18.17.17.18.18.17.18.18.18.17.18.18.18.17c.06.06.12.11.17.17l.18.18.18.17.18.18.18.17.18.18.18.17.17.18.18.17.18.18.18.17.18.18.18.17.18.18c0,.06.11.11.17.17l.18.17.18.18.18.17.18.18.18.17.18.18c0,.06.11.11.17.17l.18.18.18.17.18.18.18.17.18.18.17.17.18.18.18.17.18.18.18.17.18.17.18.18.17.17.18.18.18.17.18.18.18.17.18.18.17.17.18.18.18.17.18.18.18.17.18.18.18.17.17.17.18.18.18.17.18.18.18.17.18.18.18.17.17.18.18.17.18.18.18.17.18.18.18.17.17.18.18.17.18.18.18.17.18.17.18.18.18.17.17.18.18.17.18.18.18.17.18.18.18.17.17.18.18.17.18.18.18.17.18.18.18.17.18.17a1.45,1.45,0,0,0,.17.18l.18.17.18.18.18.17.18.18.18.17.18.18.17.17.18.18.18.17.18.18.18.17.18.18.17.17.18.18.18.17.18.17A20.32,20.32,0,0,0,492,317.73a19.47,19.47,0,0,0,12.47-4.53l.07.07.18.17.18.18.17.17.18.18.18.17.18.17a13.78,13.78,0,0,0,4.32,3.07,13.36,13.36,0,0,0,5.56,1.2c4.72,0,9.23-2.23,14.41-7.25l0,0,.18.18.18.17.18.18.18.17.18.18.18.17.17.18.18.17.18.17.18.18.18.17a17.09,17.09,0,0,0,2.32,1.93,19.37,19.37,0,0,0,11.28,3.37,26.54,26.54,0,0,0,5.42-.58l6.38-1.32.11.12.18.17.18.18.18.17.18.17.18.18a1.45,1.45,0,0,0,.18.17l.17.18.18.17.18.18.18.17.18.18.18.17c.06.06.11.12.18.18s.11.11.17.17l.18.18.18.17.18.18.18.17.18.18c.06.05.11.11.17.17l.18.17.18.18.18.17.18.18.18.17.18.18c.06.06.11.12.17.17a15.64,15.64,0,0,0,2.44,1.94l.13.09a15.13,15.13,0,0,0,8,2.26,20,20,0,0,0,8.37-2,32.72,32.72,0,0,0,11.87-10c.8-1,1.62-2,2.45-3.16l.61.59a22,22,0,0,0,15.48,6.48c6.87,0,14.06-2.34,21.29-7a52.86,52.86,0,0,0,7.79-6.12h0l.09.11.09.07.09.1.09.07.09.1.09.07.09.11.08.07.1.1.08.07.1.11.08.07.1.1.08.07.09.11.09.07.09.1.09.07.09.11.09.07.09.1.08.07.1.11.08.07.1.1.08.07.1.11.08.07.09.1.09.07.09.11.09.07.09.1.09.07.09.11.08.06.1.11.08.07.1.1.08.07.09.11.09.07.09.1.09.07.09.11.09.07.09.1.08.07.1.11.08.07.1.1.08.07.1.11.08.07.09.1.09.07.09.11.09.07.09.1.09.07.09.11.08.07.1.1.08.07.1.11.08.06.1.11.08.07.09.11.09.06.09.11.09.07.09.1.09.07.09.11.08.07.1.1.08.07.1.11.08.07.09.1.09.07.09.11.09.07.09.1.09.07.09.11.08.07.1.1.08.07.1.11.08.07.1.1.08.07.09.11.09.07.09.1.09.07.09.11.09.06.09.11.59.48c3,2.48,7.07,4,12.06,4.43.69.06,1.39.1,2.08.1a31,31,0,0,0,13.41-3.42A64.74,64.74,0,0,0,690.57,307a42.2,42.2,0,0,0,11.13-14.54,44,44,0,0,0,4.14-14.24,94.16,94.16,0,0,1,19.93-2.2,86.9,86.9,0,0,1,11,.69,112.59,112.59,0,0,1,37,11.7l.52.26.55.21a11,11,0,0,0,10.4-1.52l.35-.26.33-.3a15.53,15.53,0,0,0,4.08-6.31C792.07,274,789,266.89,785.58,258.94Z" transform="translate(-201.6 -144.93)"/><path class="cls-1" d="M405.83,313.45a55.88,55.88,0,0,0-18.36-6.3,94.91,94.91,0,0,0-18.43-.76,86.45,86.45,0,0,0-18,2.78q-8.44,2.26-17,4.37t-15.64,3.86a50.75,50.75,0,0,1-13.66,1.6,27.81,27.81,0,0,1-11.3-2.86c-6.53-3.08-11.48-10.35-14-19.62a1.88,1.88,0,0,1,1.57-2.35c.78-.14,0-5.7.83-14.34.15-1.53.44-4,1.5-9.66a388.84,388.84,0,0,1,9.65-38.6c1.81-5.85,3.31-10.69,5.8-17.15.94-2.46.57-1.35,6.05-14.75,2.72-6.64,3.35-8.21,4.74-11.31,2.81-6.25,4.39-9.27,4.92-10.34q3.45-7,4.18-8.32c.89-1.91-.34-3.62-3.67-5.13a39.43,39.43,0,0,0-10.72-3.11,26.33,26.33,0,0,0-5.56-.49.44.44,0,0,0-.35.36q-.8,3.78-4,19.8-3.3,16.47-7.71,36.23-4.19,18.75-10.74,46.06c0,.17-.55.07-1-.06-3.8-1.19-2.88-13.75-2.19-24,1.56-23.29-.87-46.68-.92-70a4.11,4.11,0,0,0-.41-1.84q-.9-1.83-3.84-2.66l-.29-.11a29.41,29.41,0,0,0-6.62-2.2,69,69,0,0,0-6.9-1.26l-.86-.1a2.09,2.09,0,0,0-2.28,1.67q-4.12,20.52-24.91,106.88c-.3,1.23-.64,2.45-.88,3.7-2.32,11.92-3.38,15.15-3.28,20.06,0,.51.61,1.05,1.23,1.7a3.09,3.09,0,0,0,2.62-.39C232.59,291,247,213,247,213c.24-1.31.94-5,2-5,1.59-.05,3.22,8.09,4,12,.5,2.51.81,4.6,1,6l2.27,16.16q1.47,14.81,2.64,24.89T262.14,288a132,132,0,0,0,4.48,17.91,55.17,55.17,0,0,0,6.16,12.69,25.56,25.56,0,0,0,8.45,8.32,20.68,20.68,0,0,0,10.13,2.61,44.85,44.85,0,0,0,11.9-1.51q6.17-1.61,13.14-4t14.46-4.79q7.5-2.35,15.2-4A65.11,65.11,0,0,1,362,313.71a61.86,61.86,0,0,1,6.94.59,37.45,37.45,0,0,1,10.39,3.37c14.16,7,19.79,21.36,30.34,23.41a8.59,8.59,0,0,0,4.71-.2c3-1.12,4.68-4.09,7-8.5,1.52-2.9,2.28-4.35,2.29-5.14C423.77,321.81,414.43,318,405.83,313.45Z" transform="translate(-201.6 -144.93)"/><path class="cls-1" d="M310.45,201.14a9,9,0,0,0,1.18,8.32,15.66,15.66,0,0,0,6.9,5.8,14.18,14.18,0,0,0,10.2.25c3.48-1.17,5.71-3.28,6.69-6.3a10,10,0,0,0-1.11-8.75,12.32,12.32,0,0,0-7-5.38,15.2,15.2,0,0,0-10.43,0C313.58,196.32,311.43,198.33,310.45,201.14Z" transform="translate(-201.6 -144.93)"/><path class="cls-1" d="M468.08,244.67q.46-6,.92-12c.54-.71,1.28-1.72,2.08-3A34.28,34.28,0,0,0,474,224c1.75-4.88-1.23-10.91-2.17-12.67a3.53,3.53,0,0,0-2.16-2.16c-1.6-.33-3,1.47-6.1,4.66-4.29,4.48-3.82,3.38-6,5.89A66.24,66.24,0,0,0,450.77,230a138.78,138.78,0,0,0-7.27,15.22q2.06-7.58,4.11-14t3.31-9.75l2.2-5.8c.63-1.68,1-2.64,1.1-2.86a5.51,5.51,0,0,1-2.3-1.41c-1.32-1.37-.91-2.56-1.67-3.8-1.22-2-4.37-2-10.2-2.61-3.58-.39-5.41-.42-5.51-.08q-1.91,9.58-7.64,31.77t-7.63,30.77c-.71,3.13-1.23,6-1.59,8.63q-4.69,8.89-7.81,11.72c-1,.89-1.76,1.17-2.35.84q-3.67-2.7,4.7-31.95,5.86-20,4.84-32.11t-9.69-12.11q-11.75,0-24.67,33,3.53-15.13,1.62-24.05t-9.4-8.91q-11.9,0-25.26,34.64,1.9-7.39,4-14.21t3.59-11.6q1.54-4.8,2.79-8.41c.84-2.41,1.52-4.34,2.06-5.8s.86-2.3.95-2.52a3.12,3.12,0,0,0-1.24-3.45,12.6,12.6,0,0,0-4.78-2.44c-2-.56-4-.83-6.17-1.22a27.54,27.54,0,0,0-5.35-.39H343.2c-1.27,6-4.14,18.32-8.59,35.86s-7.27,29-8.45,34.62c0,0,0,0,0,0q-6.45,13.37-12,18.56a2.94,2.94,0,0,1-1.61.83q-1.77,0-.44-8.92.87-6.23,2.42-13.12t3.23-12.52q1.69-5.64,3.16-10.09t2.49-7.65l1.18-3q.58-2.19-3.09-4.2a28.72,28.72,0,0,0-8.22-3,21.19,21.19,0,0,0-6.75-.58l-.88,2.85q-.74,3-1.91,7.65t-3.09,11.94q-1.91,7.32-3.23,12.19-3.22,11.94-2.79,20.43t2.5,13.11q2.06,4.64,5,6,5.3,2.53,13.51-7.73a90.59,90.59,0,0,0,8.84-13.81,39.58,39.58,0,0,0-.18,12q1.33,7.49,4.78,9.84t9,1.35l1.47-8.92q17.76-66.41,29.22-66.41a1.79,1.79,0,0,1,1.76.84q.89,1.51-2.79,12.11-3.66,11.09-6,19.33c-1.77,6.22-6.18,21.52-3.82,32.45.73,3.36,2.05,6.11,4.5,7.56a6.15,6.15,0,0,0,4.37.87c2.3-.5,4.15-2.61,4.79-5.4,11.71-30.2,26.55-67.76,29.52-67.76a3.37,3.37,0,0,1,1.17.17q1.77.84-.58,7.9Q395,252.75,394,256.62a90.4,90.4,0,0,0-3.45,21.69q-.22,9.93,1.54,15.05t4.26,6.31q5.43,2.52,15.12-9.42a76.84,76.84,0,0,0,5.66-8.39,31.62,31.62,0,0,0,.37,6.62q1.32,7.49,4.7,9.84t9,1.35l1.77-10.09q4.85-18,10-31.78a178.56,178.56,0,0,1,9.18-21.27A64.85,64.85,0,0,1,460,224.68c2.54-2.92,4.6-4.71,6.16-5.38a4.51,4.51,0,0,1,4-.17q1.32.68-3,7.48T457.6,240.4q-5.14,7-5.29,7.31a8.07,8.07,0,0,0,2.94,4.79,8,8,0,0,0,7.83.92A8.7,8.7,0,0,0,468.08,244.67Z" transform="translate(-201.6 -144.93)"/><path class="cls-1" d="M642,264.27c.62-2.11,1.18-3.1,2.39-7.16.05-.19.1-.35.14-.49a78.7,78.7,0,0,0,3-20A69.29,69.29,0,0,0,645.64,218a30.5,30.5,0,0,0-7.12-13.61,15.94,15.94,0,0,0-12-5.3q-14,0-23.2,12.61a45.38,45.38,0,0,0-9,28.2,1,1,0,0,1-.08.41,110.89,110.89,0,0,0-4.91,14.77,60.25,60.25,0,0,0-1.61,21.35c0,.28.08.54.11.82-.53.89-1.08,1.79-1.65,2.71a134.19,134.19,0,0,1-8.89,13.12c-.78.89-1.32,1.12-1.61.67q-2.35-3.19,7.34-37.16,5.87-20,4.84-32.11t-9.69-12.11q-8.82,0-18.36,18.78a1.1,1.1,0,0,1-2-.84l.48-1.46q2.72-8.07,4.33-12c1.08-2.64,1.62-4,1.62-4.12q.88-3-4-5.13a40.46,40.46,0,0,0-14.91-3,1.07,1.07,0,0,0-1,.86q-2,9.36-7.43,30.72-5.66,22.11-7.56,31.19c-.27,1.14-.51,2.24-.73,3.31a1,1,0,0,1-.1.27q-5.77,11.61-9.6,15.09c-.8.73-1.46,1.3-2,1.71a1.1,1.1,0,0,1-1.76-.92q.09-2.52,1-8.7T518.1,266q1.17-6,2.2-10.17c.69-2.8,1.32-5.24,1.91-7.31s1.08-3.76,1.47-5.05a21,21,0,0,0,.58-2.1,3.53,3.53,0,0,0,.23-2.69,23.21,23.21,0,0,1-.45-3,8.69,8.69,0,0,0-1.1-3.19c-.68-1.34-1.2-2.44-1.54-3.28a20.7,20.7,0,0,0-1.83-3.28c-.89-1.34-1.55-2.38-2-3.11s-1.07-1.65-1.91-2.77-1.44-1.94-1.83-2.44-.91-1.12-1.54-1.85a10.09,10.09,0,0,1-.93-1.17l-.2-.3a5.52,5.52,0,0,0-3.5-1.81,11.55,11.55,0,0,0-5.43.76,30.86,30.86,0,0,0-6.54,3.36,45,45,0,0,0-7.12,6,67.39,67.39,0,0,0-7,8.32,65.07,65.07,0,0,0-6.17,10.93,90,90,0,0,0-4.77,13.2,67.72,67.72,0,0,0-2,21.44q.81,9.84,5,16.31t10.06,6.47c3.82,0,7.25-2.32,10.28-7.26,2.55-4,5.58-11.9,9.11-23.9h.15a64.81,64.81,0,0,0-1.69,20.37c.54,6.5,2,10.24,4.48,11.37,2.83,1.34,7.34-1.83,13.51-9.45a66,66,0,0,0,5.37-7.7,1.1,1.1,0,0,1,2,.59,27.94,27.94,0,0,0,.37,5.31q1.32,7.49,4.77,9.92c2.15,1.51,4.9,2,8.28,1.4a1.1,1.1,0,0,0,.88-.9l1.33-8.1,0-.11q17.91-66.36,29.5-66.36a3.47,3.47,0,0,1,1.18.17c1.07.56.88,3.08-.59,7.56q-6.47,19.34-7.93,24.55-5.73,20.17-6.39,33.55t4.18,16.56q2.65,1.68,6.91-.34t8.37-7.4a121.37,121.37,0,0,0,9.64-14.61,1.09,1.09,0,0,1,2,.22,29.69,29.69,0,0,0,4.08,8.09q4.7,6.46,10.87,6.47,7.49,0,16-5.55t15-16a.57.57,0,0,1,.11-.14l.17-.16a21.53,21.53,0,0,0,2.25-3.66c.76-1.49,1.37-1.29,2.38-2.69C641.75,269.08,640.78,268.48,642,264.27ZM510.46,223.84c-.19.89-.42,1.76-.66,2.6l-1,3.53c-.44,1.52-.81,2.83-1.1,3.95l-6.31,24.55q-5,19-7.2,24.72t-5.73,5.71q-2.64,0-3.37-4.45a42.14,42.14,0,0,1,.29-12,164.23,164.23,0,0,1,3.52-17.49,90.92,90.92,0,0,1,10.21-25.89q6.54-10.77,11.09-8.24c.29.11.46.42.51.92A7.09,7.09,0,0,1,510.46,223.84Zm96.63,70.78c-2.15,0-3.43-2.35-3.82-7.06a68.23,68.23,0,0,1,.66-14.67,1.1,1.1,0,0,1,1.93-.57q5.46,6.31,11.7,8.21a1.08,1.08,0,0,1,.66,1.45Q612.85,294.63,607.09,294.62Zm24.82-72.89a134.74,134.74,0,0,1-1.69,16.57q-1.4,8.56-3.89,18.32-2.88,11-5.38,18.34a1.09,1.09,0,0,1-1.37.68q-8.13-2.75-13.61-12.28a1.12,1.12,0,0,1-.14-.74c.39-2.25,1-4.76,1.7-7.51q2.36-9.75,4.85-16.9a83.91,83.91,0,0,1,4.48-10.93,33.46,33.46,0,0,1,3.89-6.05c1.27-1.51,2.35-2.21,3.23-2.1a6.57,6.57,0,0,1,2.49.84c0,.22.22,0,.66-.67a3.63,3.63,0,0,0,.67-2,4.29,4.29,0,0,0-1-2.36,1.28,1.28,0,0,0-.29-.28,11.46,11.46,0,0,0-5.93-2q-3.6-.24-9,3.45a33.24,33.24,0,0,0-5.92,5.26,1.1,1.1,0,0,1-1.82-1.2,34.66,34.66,0,0,1,6.34-9.44q6.09-6.39,13.14-6.39,4.56,0,6.76,4.71T631.91,221.73Z" transform="translate(-201.6 -144.93)"/><path class="cls-1" d="M775.53,262.59a16.17,16.17,0,0,0-1.73-6.67q-3.06-6.19-11.34-9.81a50.65,50.65,0,0,0-18.58-3.7q-10.78-.33-25.26,3.11A146,146,0,0,0,689,256.32l-.11,0Q685.75,244.7,672,225.46v-.07q5-13.75,4.39-22.49-.14-.51-5.72.17a37.67,37.67,0,0,0-10.87,3q-5.28,2.35-4.55,6.22a16.13,16.13,0,0,0,1.17,3.87q1,2.52,3,7t3.3,7.8v0a45.4,45.4,0,0,1-2.25,10.42,51.86,51.86,0,0,1-5,10.27c-9.19,13.91-27.53,17.91-26.59,22.32.17.76.95,1.74,3.9,2.49a90.34,90.34,0,0,0,7.94-5.5,88.56,88.56,0,0,0,22.91-26.53c1.07-1.91,1.85-3.49,2.32-4.45h.1q4.51,14.88,4.22,26.59l-.74.51Q657,275,651,283.69t-1,14.37h0q2.21,1.85,6.68,2.26t10.28-2.43a55.05,55.05,0,0,0,10.87-7.07,33.43,33.43,0,0,0,8.59-11.6,36.62,36.62,0,0,0,3.52-16c0-.22,0-.59-.07-1.09s-.07-.87-.07-1.1a101.44,101.44,0,0,1,42.29-3.69,121.28,121.28,0,0,1,40.68,13.11.74.74,0,0,0,.29.06C774.38,270.49,775.59,266.08,775.53,262.59ZM668.77,278.9q-2.35,10.08-4.26,13.28-2.06,3.36-5.29-.34c-1.47-1.9-1.17-5.27.88-10.08a24,24,0,0,1,9.55-11.27c.1,0,.24-.11.44-.34A62.85,62.85,0,0,1,668.77,278.9Z" transform="translate(-201.6 -144.93)"/><path class="cls-2" d="M410.34,338.26a6.89,6.89,0,0,1-4.59-2.14l-.09-.09-.34-.38,0,0a82.09,82.09,0,0,0-15.65-15.52,52.5,52.5,0,0,0-15.91-8.34A62.22,62.22,0,0,0,358,309.2l-2.1,0a63.16,63.16,0,0,0-13.47,1.43c-5.07,1.11-10.14,2.45-15.07,4s-9.8,3.16-14.42,4.78-9.13,3-13.26,4.07a46.76,46.76,0,0,1-11.7,1.56h-.6a22.27,22.27,0,0,1-10.86-2.8,27.4,27.4,0,0,1-9-8.8,57.22,57.22,0,0,1-6.36-13,133.67,133.67,0,0,1-4.57-18.11c-1.56-8.22-2.62-14.91-3.33-21l-.6-5c-.69-5.78-1.47-12.34-2.22-19.89l-2.49-24.43a1.27,1.27,0,0,0-1.32-1.18,1.22,1.22,0,0,0-1.21.86A519,519,0,0,0,229,267.77l-.21.92A113.26,113.26,0,0,1,224,285c-.94,2.44-2,4.86-3,7.19a3.21,3.21,0,0,1-1.89,1.7,6.87,6.87,0,0,1-2.24.41,4.92,4.92,0,0,1-1.88-.36,6,6,0,0,1-2.73-2.45c-.82-1.36-2.74-4.53,12.92-65.46,7.15-27.85,15.11-56.56,18.2-67.6l.21-.77c.49-1.8.87-2.42,1.91-3.17a4.84,4.84,0,0,1,1.75-.76,3,3,0,0,1,.67-.09H248c.47,0,1.1.1,1.91.2,1.9.23,4.27.66,7.05,1.29a31.26,31.26,0,0,1,6.9,2.29l.15.06c4.36,1.25,5.28,3.91,5.28,5.92-.2,18.28.35,41.39,1.61,68.7q.26,5.34.49,9.9a1.27,1.27,0,0,0,1.32,1.23,1.23,1.23,0,0,0,1.26-1c2.79-11.77,5.2-22.24,7.19-31.13,2.92-13.1,5.51-25.28,7.7-36.21q2.6-12.92,3.6-17.87a4.32,4.32,0,0,1,4.21-3.44l.43,0c.9.09,2,.24,3.36.43a41.56,41.56,0,0,1,11.12,3.23c2.52,1.15,4,2.44,4.59,4a4.08,4.08,0,0,1-.17,3.15l-.05.09c-.48.88-1.88,3.66-4.16,8.27s-3.92,8.07-4.89,10.28-2.62,6-4.92,11.19-4.23,10.11-5.82,14.76-3.56,10.44-5.8,17.14S286,240,283.67,248.49c-2.25,8.28-4.29,16.77-6.07,25.26a1.6,1.6,0,0,1-.05.21,28.8,28.8,0,0,0,.21,16.75c1,3.16,4.25,11,12.09,15.35,3.66,2,7.13,2.61,11.52,3.34a53.56,53.56,0,0,0,8.57.7c1.47,0,2.92-.06,4.3-.19a29.93,29.93,0,0,0,6.56-1.44c2-.57,4.68-1.37,8.86-2.39,5.69-1.39,11.41-2.86,17-4.36a88.19,88.19,0,0,1,18.3-2.83c1.83-.09,3.67-.14,5.47-.14a94.39,94.39,0,0,1,13.25.91,51,51,0,0,1,18.9,6.5c4.4,2.57,18.67,11.7,17.09,21.21-.64,3.9-3.95,7.59-5.35,9a5.46,5.46,0,0,1-4,1.9Z" transform="translate(-201.6 -144.93)"/><path d="M296.71,155l.29,0c.87.08,2,.22,3.28.42A39.43,39.43,0,0,1,311,158.57c3.33,1.51,4.56,3.22,3.67,5.13Q314,165,310.49,172t-4.92,10.34q-1.47,3.36-4.92,11.18t-5.87,14.88q-2.43,7.07-5.8,17.15c-2.11,6.28-4.24,13.26-6.76,22.53-1.82,6.71-4,15.27-6.08,25.34l0,.11a30.41,30.41,0,0,0,.22,17.62c.75,2.3,4,11.3,12.8,16.21,3.88,2.15,7.46,2.74,12,3.5a54.73,54.73,0,0,0,8.81.72c2,0,3.57-.12,4.44-.2,4.43-.4,5.82-1.46,15.64-3.86q8.6-2.1,17-4.37a86.45,86.45,0,0,1,18-2.78c1.82-.1,3.62-.14,5.4-.14a92.65,92.65,0,0,1,13,.9,49.62,49.62,0,0,1,18.36,6.3c1.69,1,17.9,10.45,16.37,19.67-.66,4-4.69,7.94-5,8.24a4,4,0,0,1-2.87,1.4,5.47,5.47,0,0,1-3.57-1.74l-.31-.34a83.55,83.55,0,0,0-15.94-15.79,53.73,53.73,0,0,0-16.37-8.58,63,63,0,0,0-16.15-2.6c-.72,0-1.44,0-2.15,0a64.87,64.87,0,0,0-13.79,1.46q-7.71,1.68-15.2,4T312.4,318q-7,2.44-13.15,4a45.12,45.12,0,0,1-11.32,1.51h-.57a20.72,20.72,0,0,1-10.14-2.61,25.59,25.59,0,0,1-8.46-8.32,55.64,55.64,0,0,1-6.19-12.69A132.81,132.81,0,0,1,258.05,282c-1.37-7.23-2.53-14.21-3.31-20.93s-1.84-15-2.82-24.89l-2.48-24.43a2.77,2.77,0,0,0-2.82-2.53,2.71,2.71,0,0,0-2.62,1.86,516.57,516.57,0,0,0-16.44,56.38,117.63,117.63,0,0,1-4.95,17c-1.17,3-2.27,5.5-3,7.08a1.75,1.75,0,0,1-1,.93,5.38,5.38,0,0,1-1.74.32,3.48,3.48,0,0,1-1.33-.25,4.6,4.6,0,0,1-2-1.83c-4-6.61,31.13-131.3,31.5-132.67.44-1.62.68-1.87,1.33-2.33a3.38,3.38,0,0,1,1.17-.52,1.88,1.88,0,0,1,.37-.06h0c.46,0,1.07.1,1.85.19a69,69,0,0,1,6.9,1.26,30,30,0,0,1,6.57,2.17,1.76,1.76,0,0,0,.4.16q4.19,1.2,4.19,4.48-.3,27.57,1.61,68.77c.17,3.56.33,6.87.5,9.91a2.8,2.8,0,0,0,5.53.48q4.2-17.76,7.19-31.16,4.41-19.76,7.71-36.23,2.6-12.91,3.6-17.87a2.79,2.79,0,0,1,2.74-2.24m0-3a5.82,5.82,0,0,0-5.68,4.64q-1,5-3.6,17.88c-2.19,10.91-4.78,23.08-7.7,36.17-1.9,8.55-4.22,18.58-6.87,29.81-.14-2.66-.28-5.51-.42-8.53-1.26-27.28-1.81-50.36-1.61-68.6,0-2.1-.82-5.79-6.32-7.38a32.93,32.93,0,0,0-7.18-2.39c-2.83-.63-5.25-1.07-7.2-1.31-.83-.1-1.48-.17-2-.21h-.29a4.32,4.32,0,0,0-.92.11,6.48,6.48,0,0,0-2.36,1c-1.35,1-1.91,1.86-2.49,4,0,.06-.08.32-.21.77-3.09,11.05-11,39.77-18.21,67.63-15.81,61.54-13.89,64.71-12.75,66.61a7.58,7.58,0,0,0,3.46,3.07,6.69,6.69,0,0,0,2.44.46,8.43,8.43,0,0,0,2.73-.49,4.71,4.71,0,0,0,2.76-2.49c1.11-2.36,2.14-4.81,3.09-7.28A116.37,116.37,0,0,0,230.27,269l.21-.91a517.83,517.83,0,0,1,16.06-55.23l2.4,23.59c.75,7.55,1.53,14.12,2.22,19.91l.6,5c.71,6.17,1.78,12.88,3.34,21.15a135.08,135.08,0,0,0,4.64,18.32,58.33,58.33,0,0,0,6.52,13.38,28.82,28.82,0,0,0,9.47,9.27,23.62,23.62,0,0,0,11.58,3h.62A48.4,48.4,0,0,0,300,324.9c4.16-1.08,8.67-2.46,13.38-4.11s9.44-3.21,14.37-4.76,9.91-2.87,14.94-4a62.1,62.1,0,0,1,13.15-1.39c.68,0,1.37,0,2,0a60.71,60.71,0,0,1,15.4,2.49,51.07,51.07,0,0,1,15.44,8.11,80.79,80.79,0,0,1,15.36,15.23l.07.09.08.08.15.17.16.17.08.09.09.09a8.36,8.36,0,0,0,5.61,2.54,6.9,6.9,0,0,0,5-2.31l0,0c1.86-1.87,5.07-5.64,5.76-9.81,1.68-10.16-11.9-19.29-17.82-22.75a52.36,52.36,0,0,0-19.44-6.68,95.76,95.76,0,0,0-13.46-.93c-1.82,0-3.69.05-5.55.14a90.41,90.41,0,0,0-18.61,2.88c-5.58,1.5-11.29,3-17,4.35-4.22,1-6.94,1.83-8.93,2.41a28.65,28.65,0,0,1-6.27,1.39c-1.34.12-2.74.18-4.17.18a51.59,51.59,0,0,1-8.32-.68c-4.42-.74-7.61-1.26-11-3.17-7.38-4.1-10.42-11.51-11.39-14.51a27.23,27.23,0,0,1-.2-15.86,1.87,1.87,0,0,0,.08-.32c1.77-8.46,3.8-16.92,6.05-25.17,2.3-8.5,4.44-15.6,6.7-22.37s4.19-12.45,5.79-17.13,3.53-9.53,5.78-14.64,3.95-8.95,4.93-11.19,2.59-5.63,4.86-10.21,3.66-7.36,4.13-8.22l.05-.08,0-.1a5.49,5.49,0,0,0,.21-4.31c-.71-1.91-2.47-3.49-5.37-4.8a42.61,42.61,0,0,0-11.52-3.35c-1.36-.2-2.51-.35-3.43-.44a5.63,5.63,0,0,0-.58,0Z" transform="translate(-201.6 -144.93)"/><path class="cls-2" d="M319.92,211.84a15.71,15.71,0,0,1-5.95-1.19,17.26,17.26,0,0,1-7.59-6.36,10.52,10.52,0,0,1-1.35-9.63c1.13-3.25,3.61-5.59,7.36-7a16.1,16.1,0,0,1,5.63-1,18.19,18.19,0,0,1,5.8,1,13.83,13.83,0,0,1,7.76,6,11.49,11.49,0,0,1,1.27,10c-1.14,3.51-3.7,5.95-7.63,7.28a16.55,16.55,0,0,1-5.3.91Z" transform="translate(-201.6 -144.93)"/><path d="M318,188.16a16.64,16.64,0,0,1,5.32.92,12.32,12.32,0,0,1,7,5.38,10,10,0,0,1,1.11,8.75c-1,3-3.21,5.13-6.69,6.3a14.89,14.89,0,0,1-4.81.83,14.2,14.2,0,0,1-5.39-1.08,15.66,15.66,0,0,1-6.9-5.8,9,9,0,0,1-1.18-8.32c1-2.81,3.13-4.82,6.46-6.06a14.78,14.78,0,0,1,5.11-.92m0-3a17.59,17.59,0,0,0-6.15,1.11c-4.19,1.55-7,4.2-8.25,7.88a12.16,12.16,0,0,0,1.51,11,18.69,18.69,0,0,0,8.2,6.88l0,0h0a17.35,17.35,0,0,0,6.52,1.3,17.83,17.83,0,0,0,5.78-1c4.34-1.47,7.31-4.31,8.57-8.22a12.92,12.92,0,0,0-1.43-11.28,15.29,15.29,0,0,0-8.58-6.62,19.49,19.49,0,0,0-6.24-1.07Z" transform="translate(-201.6 -144.93)"/><path class="cls-2" d="M394.38,295.61a6.32,6.32,0,0,1-2.65-.58c-2.08-1-3.72-3.33-5.05-7.18-1.24-3.62-1.77-8.72-1.62-15.57a92.14,92.14,0,0,1,3.5-22c.7-2.62,3.2-10.57,7.66-24.28,1.38-4.17,1.32-5.66,1.23-6.09l-.39,0c-3.85,0-12.61,8.65-28.06,66.6l-1.17,6.75a2.57,2.57,0,0,1-2.13,2.09,14.77,14.77,0,0,1-2.16.16c-4.18,0-9.5-2.1-11.14-12.13-1.4-8.59-.1-19.73,3.86-33.11,1.56-5.47,3.59-12,6-19.39,2.87-8.29,2.94-10.42,2.88-10.91a1.14,1.14,0,0,0-.43-.06c-3.85,0-12.57,8.48-27.76,65.25l-1.33,8.06a2.55,2.55,0,0,1-2.15,2.12,18.39,18.39,0,0,1-2.61.2,11.68,11.68,0,0,1-6.72-1.91c-2.67-1.82-4.44-5.36-5.4-10.81a30.43,30.43,0,0,1-.4-5.72,69.87,69.87,0,0,1-5.63,8.18c-4.73,5.9-8.82,8.77-12.47,8.77a6.48,6.48,0,0,1-2.84-.64c-2.28-1-4.21-3.3-5.72-6.72-1.44-3.23-2.32-7.82-2.63-13.64s.66-12.83,2.84-20.9q1.32-4.87,3.23-12.18T298.24,228q1.17-4.59,1.9-7.6l0-.15.66-2.15a2.6,2.6,0,0,1,2.31-1.81h.68a30.12,30.12,0,0,1,5.71.7,30.82,30.82,0,0,1,8.65,3.1c3.12,1.72,4.4,3.71,3.81,5.91l0,.08-1.2,3.08c-.67,2.1-1.5,4.65-2.48,7.61s-2,6.19-3.14,10.06c-1.1,3.66-2.18,7.85-3.21,12.44s-1.81,8.87-2.4,13a28.42,28.42,0,0,0-.49,7.06l.08-.06c3.76-3.54,7.68-9.51,11.66-17.73l.21-.46c.77-3.36,2-8,3.67-14.52,1.24-4.76,2.73-10.47,4.47-17.32,1.31-5.15,2-7.66,2.77-10.57,1.09-4,2.32-8.63,5.65-21.73,1.57-6.2,2.57-8.08,4.27-8.08H342l.24,0,2.25.13c.92,0,2.88.29,8.93,2.13a14.31,14.31,0,0,1,5.32,2.74c2.13,1.86,2.1,3.76,1.69,5l0,.08,0,.07c0,.09-.21.52-.92,2.44-.54,1.45-1.22,3.38-2.05,5.77s-1.76,5.22-2.78,8.38c-.57,1.76-1.19,3.76-1.88,6,6.17-11.24,12.17-16.75,18.15-16.75,4,0,9.08,1.75,10.86,10.1a41.44,41.44,0,0,1,.47,12.3c7.18-15.06,14.1-22.4,21.12-22.4a10.23,10.23,0,0,1,5.6,1.5c4.24,2.67,5.22,8.11,5.59,12,1.14,12-1.91,24.45-4.37,34.46-.25,1-.5,2-.73,3-1.79,7.42-3.35,15.1-4.65,22.85.6,1.21,1.07,1.52,1.2,1.53,1.32,0,3.9-5.68,4.87-7.82.48-1.07.94-2.09,1.35-2.87.37-2.66.9-5.51,1.58-8.49,1.27-5.71,3.84-16.08,7.64-30.81,3.68-14.23,6.2-24.7,7.5-31.09a2.53,2.53,0,0,1,2.37-2h.47a44.28,44.28,0,0,1,4.42.33,38.48,38.48,0,0,1,10.62,2.71c5,2.09,5.39,5,4.83,7l0,.1,0,.1c-.06.14-.36.89-1.08,2.79-.37,1-2.21,5.8-2.21,5.8-.55,1.44-1.19,3.26-1.9,5.38a57.37,57.37,0,0,1,5.72-8.57l.21-.24a42.1,42.1,0,0,1,5.62-5.84c1.85-1.47,3.08-2.44,4.72-2.44a2.55,2.55,0,0,1,.39,0,3,3,0,0,1,2.15.93,1.35,1.35,0,0,0,.27.25,2.63,2.63,0,0,1,.52.46c7.32,8.59,3.71,24.4-4,45.51v1.35l-1.45,0h-.34a9.66,9.66,0,0,1-2-.21,11.57,11.57,0,0,1-2.17-.71,22.7,22.7,0,0,1-4-2.41,20.4,20.4,0,0,1-1.74-1.35c-1.17-1-4.27-3.77-3.43-6.63a3,3,0,0,1,.36-.82c.48-.72,2.18-3.06,5.2-7.16.7-1,1.38-1.85,2.07-2.74a83.69,83.69,0,0,0,7.3-10.89c.63-1.13,1.95-3.48,1.37-4.44a1.54,1.54,0,0,0-1.14-.65h0c-1,0-2.24,1.53-3.4,3-.48.62-1,1.26-1.51,1.87a64.88,64.88,0,0,0-7.67,11.58,175.32,175.32,0,0,0-9.09,21.08c-3.39,9.09-6.73,19.72-9.93,31.6l-1.62,9.26a2.54,2.54,0,0,1-2.14,2.09,18.64,18.64,0,0,1-2.62.2,11.4,11.4,0,0,1-6.66-1.92c-2.62-1.82-4.36-5.36-5.32-10.8-.11-.6-.19-1.23-.26-1.89-1.07,1.62-2.12,3.07-3.11,4.32C403,292.2,398.3,295.61,394.38,295.61Z" transform="translate(-201.6 -144.93)"/><path d="M341.84,190.37h0a.24.24,0,0,1,.11,0l2.43.14h-.15c-1,0-.9.4-.4.93-2.19,3.68-2.61,4.86-2.38,5,0,0,.05,0,.09,0,.67,0,3.55-2.4,5.05-2.4a.65.65,0,0,1,.2,0H347c.62,0-2.1-1.61-3.1-2.68l.55-.92c1.21,0,3.78.61,8.58,2.06a13.12,13.12,0,0,1,4.78,2.44A3.12,3.12,0,0,1,359,198.5c-.09.22-.41,1.06-.95,2.52s-1.22,3.39-2.06,5.8-1.76,5.21-2.79,8.41-2.22,7.06-3.59,11.6-2.7,9.28-4,14.21Q359,206.4,370.92,206.4q7.49,0,9.4,8.91a43.72,43.72,0,0,1,.15,14.49,1,1,0,0,0,1.06,1.19,1,1,0,0,0,1-.62q10.88-24,20.89-24a8.72,8.72,0,0,1,4.8,1.27c3.66,2.3,4.54,7.17,4.89,10.84,1.24,13-2.57,26.66-5.06,37-1.25,5.22-3.06,13.27-4.75,23.42,1,2.3,2,2.75,2.62,2.81H406c3,0,5.84-8.28,7.58-11.55a1.12,1.12,0,0,0,.12-.35c.35-2.59.87-5.4,1.56-8.45q1.91-8.56,7.63-30.77,5.55-21.5,7.52-31.16a1,1,0,0,1,1-.84h.4c.91,0,2.33.11,4.26.32a36.62,36.62,0,0,1,10.2,2.61q4.85,2,4,5.21c-.09.22-.47,1.18-1.1,2.86l-2.22,5.8c-.83,2.18-1.95,5.43-3.32,9.75a1,1,0,0,0,1,1.38,1,1,0,0,0,.92-.57c.36-.68.72-1.34,1.08-2a67.2,67.2,0,0,1,6.67-10.25,42.36,42.36,0,0,1,5.61-5.89c1.78-1.41,2.69-2.11,3.79-2.11h.25c1.16.11,1,.41,1.7.92a1.21,1.21,0,0,1,.24.21c6.62,7.76,3.6,22.52-4.36,44.27v.16h-.29a8.85,8.85,0,0,1-1.71-.17,9.87,9.87,0,0,1-1.87-.63,19.41,19.41,0,0,1-3.75-2.25,18.3,18.3,0,0,1-1.63-1.25c-.89-.79-3.55-3.14-3-5.09a2,2,0,0,1,.17-.41q.69-1,5.16-7.1c3.08-4.2,5.84-7.3,9.47-13.79,1.13-2,2.31-4.35,1.35-5.94a3.06,3.06,0,0,0-2.31-1.37h-.21c-2.21,0-3.81,2.93-5.95,5.39a64.85,64.85,0,0,0-7.86,11.85,178.56,178.56,0,0,0-9.18,21.27q-5.13,13.77-10,31.73a.3.3,0,0,0,0,.1l-1.63,9.29a1.05,1.05,0,0,1-.88.87,17,17,0,0,1-2.4.18,9.87,9.87,0,0,1-5.8-1.65q-3.39-2.35-4.7-9.84a24.41,24.41,0,0,1-.34-3,1.06,1.06,0,0,0-1.95-.5,63.54,63.54,0,0,1-3.74,5.29q-8,9.86-13.1,9.86a4.8,4.8,0,0,1-2-.44q-2.5-1.19-4.26-6.31t-1.54-15.05A90.4,90.4,0,0,1,390,250.62q1-3.87,7.64-24.21,2.34-7.07.58-7.9a3.37,3.37,0,0,0-1.17-.17q-11.46,0-29.51,67.71a.36.36,0,0,1,0,.1l-1.18,6.78a1.05,1.05,0,0,1-.87.86,13.28,13.28,0,0,1-1.94.15q-7.89,0-9.66-10.87-2.06-12.6,3.82-32.45,2.35-8.24,6-19.33,3.67-10.6,2.79-12.11a1.79,1.79,0,0,0-1.76-.84q-11.44,0-29.21,66.36a.43.43,0,0,0,0,.11l-1.34,8.1a1.06,1.06,0,0,1-.88.88,17,17,0,0,1-2.4.18,10.16,10.16,0,0,1-5.87-1.65q-3.45-2.35-4.78-9.84a31.76,31.76,0,0,1-.31-7.1,1.06,1.06,0,0,0-1.08-1.12,1,1,0,0,0-.89.52,72.4,72.4,0,0,1-6.38,9.47q-6.6,8.24-11.31,8.23a5,5,0,0,1-2.2-.5q-2.94-1.34-5-6t-2.5-13.11q-.43-8.49,2.79-20.43,1.32-4.87,3.23-12.19t3.09-11.94q1.17-4.59,1.9-7.62s0,0,0-.06l.67-2.15a1.07,1.07,0,0,1,1-.75h.6a32.12,32.12,0,0,1,13.63,3.62c2.45,1.34,3.48,2.75,3.09,4.2l-1.16,3,0,.06c-.68,2.12-1.51,4.67-2.48,7.63s-2,6.34-3.16,10.1-2.2,7.95-3.23,12.55-1.84,9-2.42,13.16c-.88,5.94-.74,9,.44,9a2.4,2.4,0,0,0,1.61-.66c3.72-3.48,7.73-9.31,12-18.21h0v.66h0c1.18-5.61,4-15.7,8.45-33.25,3.09-12.18,2.66-9.62,8.41-32.29.42-1.66,1.76-6.95,2.82-6.95m0-3h0c-3.16,0-4.31,3.64-5.72,9.18-3.33,13.13-4.56,17.71-5.65,21.75-.78,2.91-1.46,5.42-2.77,10.58-1.74,6.84-3.25,12.65-4.47,17.31-1.68,6.45-2.87,11-3.64,14.4l-.14.3a73.85,73.85,0,0,1-8.79,14.54c.08-.81.2-1.77.37-2.92.59-4.16,1.39-8.51,2.39-12.95s2.09-8.71,3.17-12.34c1.16-3.86,2.19-7.14,3.14-10s1.79-5.48,2.47-7.59l1.15-3,0-.15.05-.16c.44-1.66.45-4.87-4.54-7.61a32,32,0,0,0-9.07-3.26,31.5,31.5,0,0,0-6-.73c-.27,0-.52,0-.76,0a4.07,4.07,0,0,0-3.66,2.86l-.66,2.15a2.17,2.17,0,0,0-.07.24c-.49,2-1.12,4.56-1.89,7.58s-1.79,7-3.08,11.92-2.34,8.9-3.22,12.17c-2.23,8.22-3.2,15.41-2.89,21.37s1.21,10.72,2.75,14.17c1.67,3.76,3.85,6.27,6.48,7.48a7.92,7.92,0,0,0,3.45.77c4.13,0,8.59-3.05,13.64-9.33,1-1.21,2.07-2.67,3.2-4.34q.08.62.18,1.2c1,5.87,3,9.73,6,11.79A13.13,13.13,0,0,0,330.9,297a19.85,19.85,0,0,0,2.82-.21,4,4,0,0,0,3.42-3.37l1.32-8c13.65-51,21.79-61.48,25-63.56a75.85,75.85,0,0,1-2.55,8.47c-2.47,7.45-4.5,14-6.07,19.5-4,13.57-5.33,24.94-3.9,33.75,1.81,11.07,7.86,13.39,12.62,13.39a16.51,16.51,0,0,0,2.38-.18,4,4,0,0,0,3.38-3.32l1.17-6.69c5.95-22.29,11.41-39.2,16.24-50.28,4.42-10.16,7.49-13.5,9.09-14.6a29.17,29.17,0,0,1-1,3.59c-4.47,13.77-7,21.74-7.69,24.39a93.38,93.38,0,0,0-3.55,22.39c-.16,7,.4,12.3,1.7,16.1,1.47,4.25,3.37,6.88,5.82,8a7.82,7.82,0,0,0,3.3.73c4.46,0,9.36-3.49,15.43-11,.36-.45.72-.92,1.09-1.41,1.09,4.9,2.93,8.2,5.59,10A12.88,12.88,0,0,0,424,297a20.09,20.09,0,0,0,2.83-.21,4,4,0,0,0,3.41-3.32l1.61-9.21c3.18-11.8,6.5-22.36,9.86-31.38q1.88-5,3.59-9.19c.58,2.6,2.92,4.67,3.95,5.59.57.5,1.06.85,1.86,1.43a23.66,23.66,0,0,0,4.32,2.57,12.06,12.06,0,0,0,2.45.81,11.28,11.28,0,0,0,2.32.24h.39l2.9-.1v-2.53c7.83-21.48,11.4-37.65,3.64-46.75a4.58,4.58,0,0,0-.79-.72l-.08-.07a4.47,4.47,0,0,0-3.07-1.38l-.53,0c-2.17,0-3.63,1.16-5.65,2.76a37.91,37.91,0,0,0-5.12,5.22v0c.7-1.84,1-2.58,1-2.72l.08-.19.07-.21c.47-1.73.87-6-5.71-8.78a40,40,0,0,0-11-2.82,44.42,44.42,0,0,0-4.58-.34h-.54a4,4,0,0,0-3.77,3.24c-1.3,6.37-3.81,16.8-7.48,31-3.81,14.76-6.39,25.15-7.66,30.87-.66,2.91-1.18,5.72-1.56,8.35-.39.78-.82,1.72-1.27,2.71a50.13,50.13,0,0,1-3,5.91c1.25-7.3,2.74-14.52,4.42-21.5.23-1,.48-2,.73-3,2.48-10.12,5.57-22.72,4.4-35-.4-4.17-1.48-10.07-6.28-13.09a11.74,11.74,0,0,0-6.4-1.73c-6.6,0-13,5.68-19.42,17.29a34.18,34.18,0,0,0-.7-6c-2.1-9.81-8.63-11.28-12.33-11.28-4.53,0-8.92,2.63-13.31,8.06.44-1.31.85-2.53,1.24-3.66.82-2.37,1.5-4.3,2-5.74.72-1.95.87-2.31.9-2.37l.05-.13.05-.15a6,6,0,0,0-2.14-6.62,15.71,15.71,0,0,0-5.87-3c-6.09-1.84-8.18-2.14-9.3-2.19l-2.12-.12-.28,0h-.33ZM448.67,236q1.06-2.24,2.06-4.08a62.65,62.65,0,0,1,7.48-11.3c.56-.65,1.07-1.3,1.57-1.93a17.76,17.76,0,0,1,1.92-2.22,14.57,14.57,0,0,1-1.25,2.65,81.26,81.26,0,0,1-7.19,10.71c-.68.9-1.37,1.8-2.08,2.76L448.67,236Z" transform="translate(-201.6 -144.93)"/><path class="cls-2" d="M561.33,303a6.41,6.41,0,0,1-3.54-1c-3.76-2.48-5.35-8.33-4.88-17.9.45-9,2.61-20.38,6.44-33.88,1-3.51,3.6-11.56,7.95-24.61,1.25-3.8,1.24-5.26,1.17-5.74h-.33c-3.9,0-12.73,8.48-28.06,65.27l-1.33,8.11a2.54,2.54,0,0,1-2.06,2.1,18.09,18.09,0,0,1-3,.27,10.86,10.86,0,0,1-6.41-1.88c-2.68-1.89-4.44-5.42-5.39-10.79a27.87,27.87,0,0,1-.38-3.93,57.76,57.76,0,0,1-4.77,6.93c-6.2,7.67-10.23,10.94-13.46,10.94a4.34,4.34,0,0,1-1.85-.4c-3.24-1.49-4.79-4.74-5.33-11.22-.12-1.53-.19-2.93-.2-4.26a65.16,65.16,0,0,1-4.6,8.46c-3,4.82-6.51,5.22-9.89,5.22h-1.66c-4.44,0-8.24-2.41-11.31-7.16-2.92-4.5-4.68-10.22-5.23-17a69.77,69.77,0,0,1,2-21.91,92.26,92.26,0,0,1,4.86-13.47,67,67,0,0,1,6.32-11.18,68.71,68.71,0,0,1,7.13-8.51,46.47,46.47,0,0,1,7.36-6.16,32.75,32.75,0,0,1,6.86-3.53,14.47,14.47,0,0,1,4.78-.92,8.53,8.53,0,0,1,1.36.1,6.91,6.91,0,0,1,4.43,2.32l.06.07.3.43,0,.1h0s.15.22.72.86,1.18,1.39,1.59,1.92,1,1.33,1.86,2.46,1.52,2.13,2,2.9,1.08,1.74,2,3.06a21.47,21.47,0,0,1,2,3.54c.33.8.83,1.86,1.49,3.16a10,10,0,0,1,1.26,3.78,23.72,23.72,0,0,0,.42,2.83,5.28,5.28,0,0,1-.27,3.53c-.08.33-.25.91-.58,2-.39,1.28-.87,2.95-1.46,5s-1.22,4.49-1.89,7.26-1.42,6.17-2.19,10.1-1.46,8-2,12.11c-.49,3.4-.79,6-.91,7.65.35-.3.76-.65,1.2-1.06,2.39-2.17,5.5-7.09,9.25-14.61.22-1.07.46-2.16.73-3.29,1.26-6,3.81-16.52,7.57-31.22,3.63-14.19,6.13-24.51,7.42-30.69a2.54,2.54,0,0,1,2.37-2h.47c1,0,2.43.11,4.43.33a37.89,37.89,0,0,1,10.7,2.8c5,2.13,5.45,4.88,4.92,6.83-.09.4-.43,1.27-1.7,4.37-.84,2.06-1.93,5-3.25,8.85,5.89-10.34,11.62-15.38,17.43-15.38,4.58,0,10.24,2.34,11.19,13.48.7,8.22-1,19.21-4.9,32.66-6.65,23.28-7.79,31.52-7.77,34.43,1.88-2.4,4.65-6.53,8.21-12.27l1.37-2.24a3.11,3.11,0,0,1,0-.32,62.29,62.29,0,0,1,1.64-21.88,111.85,111.85,0,0,1,4.95-14.9,47,47,0,0,1,9.25-29c6.44-8.77,14.65-13.22,24.41-13.22a17.47,17.47,0,0,1,13.14,5.77,31.93,31.93,0,0,1,7.48,14.27,70.61,70.61,0,0,1,2,19A80.27,80.27,0,0,1,642,251a41,41,0,0,1-2.46,6.33c-.17.36-.36.76-.52,1.12.46-.15,1-.36,1.35-.52a7,7,0,0,1,2.41-.7,1.79,1.79,0,0,1,1.53.76c1,1.47.21,2.32-5.16,7.84-1.64,1.69-3.73,3.83-6.3,6.53l-.12.11,0,0c-4.47,7.12-9.67,12.64-15.46,16.41s-11.56,5.79-16.82,5.79c-4.6,0-8.67-2.39-12.08-7.09a30.82,30.82,0,0,1-4-7.67,119.27,119.27,0,0,1-9.32,14,25.53,25.53,0,0,1-8.9,7.83A11.47,11.47,0,0,1,561.33,303Zm40-35a64.75,64.75,0,0,0-.53,13.49c.14,1.7.65,5.68,2.32,5.68,3.06,0,6.37-3.91,9.57-11.31A27,27,0,0,1,601.3,268Zm-96.93-52.12c-1.18,0-3.78,1-8,8a90.14,90.14,0,0,0-10,25.46,162.39,162.39,0,0,0-3.49,17.34,40.63,40.63,0,0,0-.3,11.58c.35,2.12,1,3.19,1.89,3.19,1.66,0,3.11-1.6,4.33-4.75,1.45-3.75,3.85-12,7.15-24.56l6.31-24.54c.3-1.14.67-2.47,1.11-4l1-3.53c.24-.81.45-1.65.64-2.5a7.57,7.57,0,0,0,.2-1.52A2.24,2.24,0,0,0,504.37,215.83Zm99,40.9c3.34,5.77,7.49,9.58,12.32,11.35,1.61-4.77,3.36-10.77,5.22-17.84,1.64-6.41,2.94-12.54,3.86-18.19a133.64,133.64,0,0,0,1.67-16.37c.18-5.06-.41-9.1-1.77-12-1.23-2.63-2.94-3.85-5.4-3.85-4.31,0-8.25,1.94-12.06,5.93a32.46,32.46,0,0,0-4.86,6.67,32,32,0,0,1,4.33-3.57c3.68-2.5,6.76-3.72,9.41-3.72l.57,0a12.81,12.81,0,0,1,6.71,2.27,2.45,2.45,0,0,1,.59.57,5.66,5.66,0,0,1,1.37,3.28,5.18,5.18,0,0,1-.91,2.84c-.44.67-.94,1.43-1.88,1.43H621v-.63a5,5,0,0,0-1.21-.3s-.62.07-1.89,1.57a32.94,32.94,0,0,0-3.72,5.79,83.82,83.82,0,0,0-4.39,10.73c-1.64,4.69-3.25,10.33-4.8,16.75C604.27,252.14,603.72,254.57,603.34,256.73Z" transform="translate(-201.6 -144.93)"/><path d="M622.47,193.12a15.94,15.94,0,0,1,12,5.3A30.5,30.5,0,0,1,641.64,212a69.29,69.29,0,0,1,1.91,18.58,78.7,78.7,0,0,1-3,20c-1.62,5.66-4.06,8.32-3.15,9.28a1,1,0,0,0,.77.27c1.37,0,3.71-1.41,4.6-1.41.14,0,.25,0,.3.12.46.65-2.66,3.38-11.32,12.48a1.84,1.84,0,0,0-.27.28q-6.57,10.47-15,16t-16,5.55q-6.18,0-10.87-6.47a29.68,29.68,0,0,1-4.12-8.21,1,1,0,0,0-1-.72,1,1,0,0,0-.89.52,121.48,121.48,0,0,1-9.7,14.71q-4.11,5.38-8.37,7.4a10,10,0,0,1-4.17,1.1,5,5,0,0,1-2.74-.76q-4.85-3.19-4.18-16.56t6.39-33.55q1.47-5.2,7.93-24.54c1.47-4.49,1.66-7,.59-7.57a3.5,3.5,0,0,0-1.18-.16q-11.6,0-29.5,66.37l0,.11L537.27,293a1,1,0,0,1-.84.86,16,16,0,0,1-2.76.26,9.33,9.33,0,0,1-5.55-1.62c-2.3-1.62-3.89-4.84-4.77-9.82a27.82,27.82,0,0,1-.37-5.27,1,1,0,0,0-1.06-1.07,1,1,0,0,0-.89.52,64.74,64.74,0,0,1-5.46,8.12c-5.36,6.62-9.46,10.4-12.31,10.4a2.7,2.7,0,0,1-1.2-.26c-2.45-1.12-3.94-3.49-4.48-10s0-10.62,1.69-17.62h-.15c-3.53,12-6.56,17.12-9.11,21.15-2.58,4.21-5.46,4.52-8.62,4.52h-1.66q-5.87,0-10.06-6.47t-5-16.31a67.72,67.72,0,0,1,2-21.44,90,90,0,0,1,4.77-13.2,65.07,65.07,0,0,1,6.17-10.93,67.39,67.39,0,0,1,7-8.32,45,45,0,0,1,7.12-6,30.86,30.86,0,0,1,6.54-3.36,12.88,12.88,0,0,1,4.28-.84,8.53,8.53,0,0,1,1.15.08,5.51,5.51,0,0,1,3.51,1.82l.19.28a8.61,8.61,0,0,0,.93,1.18c.63.73,1.15,1.35,1.54,1.85s1,1.32,1.83,2.44,1.47,2,1.91,2.77,1.1,1.77,2,3.11a20.7,20.7,0,0,1,1.83,3.28c.34.84.86,1.94,1.54,3.28a8.69,8.69,0,0,1,1.1,3.19,23.21,23.21,0,0,0,.45,3,3.53,3.53,0,0,1-.23,2.69,21,21,0,0,1-.58,2.1q-.58,1.94-1.47,5.05c-.59,2.07-1.22,4.51-1.91,7.31S514.88,256,514.1,260,512.63,268,512,272.14s-.93,7.18-1,8.84a1,1,0,0,0,1.05,1.07,1,1,0,0,0,.62-.22c.55-.42,1.25-1,2.09-1.78q3.82-3.48,9.61-15.1a.81.81,0,0,0,.08-.25c.23-1.08.47-2.18.74-3.32q1.9-9.07,7.56-31.19,5.48-21.41,7.44-30.75a1,1,0,0,1,1-.83h.4c.92,0,2.34.11,4.26.32a35.94,35.94,0,0,1,10.28,2.69q4.92,2.1,4,5.13c0,.11-.54,1.48-1.62,4.12s-2.52,6.64-4.33,12l-.71,2.14a1.05,1.05,0,0,0,1,1.38,1,1,0,0,0,.9-.59q9.72-19.41,18.68-19.41,8.67,0,9.69,12.11T579,250.62q-9.69,34-7.34,37.16a.42.42,0,0,0,.37.22c.3,0,.72-.29,1.24-.89A134.19,134.19,0,0,0,582.17,274c.57-.92,1.12-1.82,1.65-2.71,0-.28-.08-.54-.11-.82a60.25,60.25,0,0,1,1.61-21.35,109.69,109.69,0,0,1,4.92-14.78,1,1,0,0,0,.07-.39,45.35,45.35,0,0,1,9-28.21q9.26-12.61,23.2-12.61M600.59,216a1,1,0,0,0,.76-.35,32.65,32.65,0,0,1,6.15-5.53q5.09-3.47,8.56-3.46h.47a11.41,11.41,0,0,1,5.94,2,1.33,1.33,0,0,1,.27.26,4.34,4.34,0,0,1,1.06,2.37,3.63,3.63,0,0,1-.67,2c-.33.5-.53.75-.61.75s0,0,0-.08a6.57,6.57,0,0,0-2.49-.84h-.19c-.84,0-1.86.7-3,2.11a33.46,33.46,0,0,0-3.89,6.05,83.91,83.91,0,0,0-4.48,10.93q-2.5,7.15-4.85,16.9-1.11,4.14-1.7,7.53a1.11,1.11,0,0,0,.13.71q5.5,9.56,13.67,12.31a1.13,1.13,0,0,0,.32,0,1,1,0,0,0,1-.71q2.51-7.33,5.4-18.38,2.49-9.75,3.89-18.32a134.74,134.74,0,0,0,1.69-16.57q.29-8-1.91-12.69t-6.76-4.71q-7.05,0-13.14,6.39a34.34,34.34,0,0,0-6.48,9.76,1.06,1.06,0,0,0,1,1.5M484.43,282.9q3.52,0,5.73-5.71t7.2-24.72l6.31-24.55c.29-1.12.66-2.43,1.1-3.95l1-3.53c.24-.84.47-1.71.66-2.6a7.09,7.09,0,0,0,.22-2.11c-.05-.5-.22-.81-.51-.92a3.68,3.68,0,0,0-1.8-.48q-4,0-9.29,8.72a90.92,90.92,0,0,0-10.21,25.89,164.23,164.23,0,0,0-3.52,17.49,42.14,42.14,0,0,0-.29,12q.74,4.46,3.37,4.45m118.66,5.72q5.77,0,11.14-12.67a1,1,0,0,0-.65-1.41q-6.29-1.91-11.8-8.31a1,1,0,0,0-1.83.54,68.22,68.22,0,0,0-.68,14.79c.39,4.71,1.67,7.06,3.82,7.06m19.38-98.5c-10.26,0-18.88,4.65-25.62,13.83a48.48,48.48,0,0,0-9.54,29.63c-1,2.4-1.85,4.75-2.62,7,1.94-8.82,2.67-16.32,2.15-22.38-1.09-12.92-8.41-14.85-12.68-14.85-4,0-8,2.12-11.91,6.42a16.51,16.51,0,0,0,.92-2.55c.52-2.14.29-5.81-5.82-8.42a39.06,39.06,0,0,0-11.13-2.91,44.39,44.39,0,0,0-4.59-.34h-.54a4.06,4.06,0,0,0-3.77,3.21c-1.29,6.15-3.78,16.46-7.4,30.63-3.76,14.69-6.31,25.21-7.59,31.28-.24,1-.47,2.07-.69,3.11a75.42,75.42,0,0,1-7.08,12q.2-1.49.45-3.3c.58-4.07,1.26-8.12,2-12s1.5-7.29,2.17-10,1.31-5.17,1.89-7.21,1.07-3.73,1.45-5c.27-.9.44-1.48.55-1.89a6.76,6.76,0,0,0,.33-4.36,20.68,20.68,0,0,1-.39-2.63,11.49,11.49,0,0,0-1.42-4.37c-.65-1.26-1.13-2.29-1.44-3.05a23.07,23.07,0,0,0-2.11-3.79c-.85-1.3-1.49-2.32-1.92-3s-1.17-1.8-2.07-3-1.47-2-1.87-2.49-1-1.22-1.65-2c-.34-.39-.5-.59-.57-.69l0,0-.12-.17-.19-.28-.1-.15-.11-.13a8.45,8.45,0,0,0-5.35-2.83,11.64,11.64,0,0,0-1.58-.11,15.88,15.88,0,0,0-5.28,1,33.91,33.91,0,0,0-7.19,3.69,47.44,47.44,0,0,0-7.6,6.36,71.08,71.08,0,0,0-7.29,8.69,68.44,68.44,0,0,0-6.45,11.43,93.25,93.25,0,0,0-4.94,13.64v.1a71.27,71.27,0,0,0-2.06,22.38c.58,7,2.42,13,5.47,17.7,3.36,5.2,7.59,7.84,12.57,7.84h1.66c3.64,0,7.8-.46,11.18-5.95.7-1.1,1.41-2.26,2.14-3.57.7,6.26,2.5,9.54,6.1,11.19a5.7,5.7,0,0,0,2.45.53c3.78,0,8-3.33,14.64-11.51.79-.95,1.63-2.08,2.54-3.43,1,5.65,3,9.42,5.95,11.52a12.38,12.38,0,0,0,7.28,2.16,20.2,20.2,0,0,0,3.28-.3,4,4,0,0,0,3.28-3.34l1.33-8.06c5.89-21.82,11.32-38.39,16.15-49.24,4.38-9.86,7.42-13.18,9.07-14.28a30.15,30.15,0,0,1-.9,3.25c-4.36,13.05-7,21.13-8,24.67-3.86,13.6-6,25.11-6.5,34.21-.5,10.14,1.31,16.43,5.53,19.21a8,8,0,0,0,4.39,1.26,12.89,12.89,0,0,0,5.45-1.39c3.26-1.54,6.44-4.32,9.46-8.26a114.6,114.6,0,0,0,7.88-11.59,31.19,31.19,0,0,0,3,5.2c3.72,5.12,8.19,7.71,13.3,7.71,5.56,0,11.49-2,17.64-6a54,54,0,0,0,15.77-16.64l.06-.06c2.56-2.7,4.63-4.82,6.28-6.53,2-2.06,3.34-3.42,4.2-4.41s2.68-3.09,1.12-5.33a3.3,3.3,0,0,0-2.76-1.4,4.12,4.12,0,0,0-.92.1,35.31,35.31,0,0,0,1.58-4.41,82.45,82.45,0,0,0,3.13-20.77,72.36,72.36,0,0,0-2-19.39,33.55,33.55,0,0,0-7.84-14.93,18.92,18.92,0,0,0-14.23-6.24Zm-12.58,15.12a13.93,13.93,0,0,1,9.35-3.91c1.31,0,2.81.36,4,3a14.68,14.68,0,0,1,.66,1.7,14.45,14.45,0,0,0-7.2-2.35l-.68,0a14.32,14.32,0,0,0-6.17,1.6Zm12.63,11.81a3.13,3.13,0,0,0,2.38-1.11,130.94,130.94,0,0,1-1.64,15.87c-.91,5.61-2.21,11.69-3.84,18.07s-3.22,11.72-4.68,16.19c-3.76-1.78-7.06-5-9.83-9.62.37-2,.88-4.18,1.52-6.56v-.08c1.53-6.37,3.13-12,4.76-16.61a83.29,83.29,0,0,1,4.3-10.52,32,32,0,0,1,3.53-5.52,7.21,7.21,0,0,1,1-1,3.06,3.06,0,0,1,.58.2,3.05,3.05,0,0,0,1.93.67ZM484.6,279.89A5.35,5.35,0,0,1,484,278a39.75,39.75,0,0,1,.3-11.13,161.18,161.18,0,0,1,3.46-17.16,88.68,88.68,0,0,1,9.86-25.06c2.82-4.64,4.73-6.33,5.78-6.94-.15.66-.32,1.31-.5,1.93l-1,3.53c-.44,1.54-.82,2.89-1.12,4l-6.32,24.56c-3.28,12.48-5.66,20.69-7.09,24.39-.86,2.23-1.88,3.62-2.76,3.78Zm90.21,0c.83-4.76,2.68-12.9,6.61-26.8a60.47,60.47,0,0,0-.72,17.54l-1.08,1.77q-2.73,4.39-4.81,7.49Zm28.46,5.71c-.21-.31-.76-1.36-1-4.3a57.62,57.62,0,0,1,.18-10.06,27.58,27.58,0,0,0,8.19,5.41c-3.53,7.62-6.19,8.85-7.36,8.95Z" transform="translate(-201.6 -144.93)"/><path class="cls-2" d="M653.82,295.47c-.44,0-.88,0-1.31-.06-3.25-.3-5.67-1.13-7.38-2.52a2.72,2.72,0,0,1-.39-.37c-3.72-4.36-3.37-9.78,1-16.1,4.11-5.92,10.48-11.63,18.93-17l0,0a81.21,81.21,0,0,0-3.13-21.75c-.35.67-.72,1.36-1.12,2.08a52.53,52.53,0,0,0-3.35,7C653.46,256.9,642.28,262,640.08,262a1.65,1.65,0,0,1-1.28-.55c-1-1.16-.07-2.12,1.46-3.73a94.94,94.94,0,0,0,10.07-12.29c.74-1.07,1.11-1.61,1.52-2.27a37.52,37.52,0,0,0,5.22-17.26c0-.54.07-.9.12-1.18-.84-2.11-1.89-4.58-3.12-7.34-1.31-2.95-2.33-5.32-3-7a17.67,17.67,0,0,1-1.27-4.21c-.41-2.29.21-5.49,5.43-7.81a39.39,39.39,0,0,1,11.3-3.15,45.57,45.57,0,0,1,4.78-.39h.17a2.53,2.53,0,0,1,2.49,2.44c.22,5.71-1.21,13-4.26,21.57,8.34,11.77,13.78,21.54,16.15,29.05a147.06,147.06,0,0,1,28.45-10.18,103.42,103.42,0,0,1,23.65-3.19c.68,0,1.34,0,2,0a52.34,52.34,0,0,1,19.12,3.83c8.75,3.81,13.45,9.78,14,17.75.22,4.35-.57,7.26-2.4,8.94l-.1.09a2.47,2.47,0,0,1-1.5.53h0a2.29,2.29,0,0,1-.82-.15l-.09,0-.08,0a120.37,120.37,0,0,0-40.17-12.95,94.89,94.89,0,0,0-12.16-.79,103.67,103.67,0,0,0-28.36,4.1q.06.74.06,1.08a38.24,38.24,0,0,1-3.67,16.62,35,35,0,0,1-9,12.11,57.09,57.09,0,0,1-11.16,7.26A22.65,22.65,0,0,1,653.82,295.47Zm10.43-28.57a22.89,22.89,0,0,0-6.77,9c-2.26,5.31-1.83,7.59-1.07,8.58s1.54,1.35,1.87,1.35.79-.61,1-.88c1.18-2,2.55-6.3,4.08-12.84Q663.93,269.15,664.25,266.9Z" transform="translate(-201.6 -144.93)"/><path d="M671.28,196.27h.15a1,1,0,0,1,1,1q.31,8.42-4.27,21.24a1.06,1.06,0,0,0,.14,1q12.82,18.06,16.23,29.31a1,1,0,0,0,1.45.65,145.39,145.39,0,0,1,28.62-10.32A102.3,102.3,0,0,1,737.93,236q1,0,2,0a50.86,50.86,0,0,1,18.58,3.7q12.33,5.38,13.07,16.48c.19,3.81-.44,6.39-1.91,7.73a1,1,0,0,1-.59.23.75.75,0,0,1-.29-.06A121.28,121.28,0,0,0,728.06,251a96,96,0,0,0-12.35-.8,105,105,0,0,0-29.94,4.5c0,.22,0,.59.07,1.09s.07.87.07,1.09a36.7,36.7,0,0,1-3.52,16,33.43,33.43,0,0,1-8.59,11.6,55.45,55.45,0,0,1-10.87,7.06,21,21,0,0,1-9.11,2.49c-.4,0-.79,0-1.17-.05a12.3,12.3,0,0,1-6.58-2.19,1.53,1.53,0,0,1-.18-.18Q641,285.87,647,277.27t18.5-16.56l.74-.5a82.33,82.33,0,0,0-3.49-24.08,1,1,0,0,0-1-.77,1,1,0,0,0-.93.59c-1.39,2.88-3.63,6.35-5.06,10.3-3.49,9.61-14.24,14.22-15.66,14.22a.22.22,0,0,1-.14,0c-.32-.37,4.81-4.37,11.62-14.19.77-1.1,1.15-1.65,1.57-2.34,5.56-9.07,5.29-17.83,5.55-19a1.05,1.05,0,0,0,0-.61q-1.29-3.27-3.19-7.53c-1.32-3-2.32-5.29-3-7a16.21,16.21,0,0,1-1.17-3.86q-.74-3.87,4.55-6.22a37.69,37.69,0,0,1,10.87-3,42.22,42.22,0,0,1,4.6-.38m-13,91.09a2.72,2.72,0,0,0,2.23-1.6q1.9-3.19,4.26-13.28a63,63,0,0,0,1.32-8.74c-.2.22-.34.33-.44.33a24.09,24.09,0,0,0-9.55,11.27q-3.08,7.23-.88,10.09c1.13,1.29,2.15,1.93,3.06,1.93m13-94.09a46,46,0,0,0-5,.4,40.59,40.59,0,0,0-11.73,3.27c-6.38,2.84-6.71,7.06-6.3,9.4a18.94,18.94,0,0,0,1.36,4.56c.7,1.71,1.73,4.09,3.05,7.06,1.15,2.59,2.14,4.91,2.95,6.93,0,.24,0,.52-.07.87a36.17,36.17,0,0,1-5,16.58c-.38.62-.72,1.11-1.47,2.2a93.87,93.87,0,0,1-9.93,12.12c-.54.56-.93,1-1.23,1.32-1.94,2.27-.56,4.08-.27,4.42a3.14,3.14,0,0,0,2.41,1.07c2.49,0,14.48-5.21,18.48-16.2a42.37,42.37,0,0,1,2.55-5.49,75.56,75.56,0,0,1,2.14,16.81c-8.3,5.34-14.6,11.05-18.71,17-6,8.67-3.84,14.54-.94,17.94a6.11,6.11,0,0,0,.58.56c2,1.58,4.64,2.51,8.19,2.84a13.94,13.94,0,0,0,1.45.07,24,24,0,0,0,10.44-2.8,58.2,58.2,0,0,0,11.45-7.44,36.67,36.67,0,0,0,9.39-12.62,39.7,39.7,0,0,0,3.81-17.23,101.76,101.76,0,0,1,26.8-3.72,93.46,93.46,0,0,1,12,.77,119,119,0,0,1,39.68,12.8l.16.08.16.07a4,4,0,0,0,1.36.25,4,4,0,0,0,2.41-.84l.11-.08.1-.09c2.18-2,3.12-5.31,2.87-10.1-.57-8.62-5.57-15-14.86-19.08A53.9,53.9,0,0,0,740,233c-.67,0-1.36,0-2.05,0a105.4,105.4,0,0,0-24,3.23,146.64,146.64,0,0,0-27.21,9.58c-2.6-7.33-7.65-16.27-15.37-27.22,3-8.57,4.31-15.57,4.09-21.4a4,4,0,0,0-4-3.88Zm-13.71,90.28c-.19-.31-.89-1.93,1.29-7a22.48,22.48,0,0,1,3.09-5.23c0,.18-.08.36-.11.55-1.77,7.56-3,10.81-3.8,12.19a5.46,5.46,0,0,1-.47-.48Z" transform="translate(-201.6 -144.93)"/><path class="cls-2" d="M274.63,274.25c-.38,11.5,2.07,16.81,2.07,16.81l-4.95-13.81Z" transform="translate(-201.6 -144.93)"/><line x1="440.5" y1="130.07" x2="442.11" y2="132.4"/><path class="cls-3" d="M645,274.28" transform="translate(-201.6 -144.93)"/><path class="cls-3" d="M652.42,256.58" transform="translate(-201.6 -144.93)"/><path class="cls-4" d="M640.58,261.17" transform="translate(-201.6 -144.93)"/><path class="cls-5" d="M641.38,279" transform="translate(-201.6 -144.93)"/><path class="cls-5" d="M649.38,256.63" transform="translate(-201.6 -144.93)"/><path class="cls-3" d="M632.75,261.46" transform="translate(-201.6 -144.93)"/><line class="cls-2" x1="452.7" y1="96.88" x2="442.75" y2="110.91"/><polyline class="cls-2" points="441.59 114.01 453.9 99.19 443.04 110.52"/><path class="cls-6" d="M634.25,265a19,19,0,0,1,1.71-.95" transform="translate(-201.6 -144.93)"/><path class="cls-3" d="M641.44,260.94" transform="translate(-201.6 -144.93)"/><path class="cls-7" d="M476.58,191.42" transform="translate(-201.6 -144.93)"/><path class="cls-2" d="M341.2,197.23c.63,1.43,7.5-3,7.5-3L344.42,191H343Z" transform="translate(-201.6 -144.93)"/><path class="cls-2" d="M344.13,194.69a12.67,12.67,0,0,0-2.57.5l-.36,1.28Z" transform="translate(-201.6 -144.93)"/><polyline class="cls-2" points="143.16 45.64 141.71 45.55 141.71 46.41 142.96 46.41"/><path class="cls-7" d="M225.38,295.5" transform="translate(-201.6 -144.93)"/><path class="cls-5" d="M196,258.31" transform="translate(-201.6 -144.93)"/><path class="cls-5" d="M413.56,339.88" transform="translate(-201.6 -144.93)"/><path class="cls-5" d="M418.5,338.88" transform="translate(-201.6 -144.93)"/><path class="cls-5" d="M476.25,213.5" transform="translate(-201.6 -144.93)"/><path d="M668.35,218l-2.27,6.61L671,219Z" transform="translate(-201.6 -144.93)"/><path d="M683.71,219.71l-16.21,1.5" transform="translate(-201.6 -144.93)"/><path d="M678.54,221.13" transform="translate(-201.6 -144.93)"/><path class="cls-5" d="M409.58,337.58" transform="translate(-201.6 -144.93)"/><path class="cls-8" d="M385.67,384.67" transform="translate(-201.6 -144.93)"/><path class="cls-8" d="M381,360" transform="translate(-201.6 -144.93)"/><path class="cls-8" d="M480.67,194.08" transform="translate(-201.6 -144.93)"/><path class="cls-8" d="M213.88,157.38" transform="translate(-201.6 -144.93)"/><path d="M583,279.25l6.15-10.41a34.35,34.35,0,0,0-2.44,8.63,32.15,32.15,0,0,0-.32,3.48Z" transform="translate(-201.6 -144.93)"/><path class="cls-9" d="M497.72,103.5" transform="translate(-201.6 -144.93)"/><polyline class="cls-1" points="205.9 143.94 209.19 140.15 209.73 141.65 208.73 143.69"/><path class="cls-2" d="M636.84,261.09c1.24-1.09,3-2.71,5.16-4.71,8-7.64,11.09-11.8,11.69-11.38s-1.83,5.87-5.56,10.25a21.31,21.31,0,0,1-4,4.13,41,41,0,0,0-6.12,5.46Z" transform="translate(-201.6 -144.93)"/><path class="cls-2" d="M633.21,262.5" transform="translate(-201.6 -144.93)"/><path class="cls-2" d="M632.94,261.09" transform="translate(-201.6 -144.93)"/><path class="cls-10" d="M639.63,270.19" transform="translate(-201.6 -144.93)"/><path d="M639.19,260" transform="translate(-201.6 -144.93)"/><polyline points="458.98 91.45 461.27 87.32 461.41 92.14"/><path class="cls-11" d="M639,272.88" transform="translate(-201.6 -144.93)"/><path class="cls-12" d="M303.86,315.33a4.36,4.36,0,0,1-1.05-.1c-.68-.1-1.67-.26-2.92-.53a53.91,53.91,0,0,1-10.17-3.2,39.41,39.41,0,0,1-6.33-3.36,29.18,29.18,0,0,1-6.12-5.23,24.4,24.4,0,0,1-4.52-7.41,35.87,35.87,0,0,1-1.71-8.82,69,69,0,0,1-.1-9A82.24,82.24,0,0,1,272,269a124.18,124.18,0,0,1,4-15.1c1.41-4.39,2.71-8.06,3.62-10.75s1.49-4.37,1.61-4.72c.22-.7,2-5.57,4.27-12.56,1.17-3.48,2.38-7.51,3.76-11.81s3.15-8.74,4.93-13.12c3.56-8.78,7.41-17.33,10.45-23.64,1.52-3.16,2.83-5.75,3.78-7.56A19,19,0,0,1,310,167a20.1,20.1,0,0,1-1.21,3l-3.42,7.72c-2.81,6.4-6.45,15-9.83,23.83-1.69,4.41-3.34,8.85-4.65,13.11s-2.46,8.36-3.58,11.87c-2.2,7-3.91,11.95-4.13,12.65l-1.65,4.71c-.94,2.69-2.28,6.35-3.73,10.69a125.2,125.2,0,0,0-4.09,14.82,78.68,78.68,0,0,0-1.18,8.46,65.49,65.49,0,0,0,0,8.75,34.07,34.07,0,0,0,1.49,8.48,23.12,23.12,0,0,0,4.15,7.11,29.22,29.22,0,0,0,5.8,5.17,39.53,39.53,0,0,0,6.11,3.44A60.8,60.8,0,0,0,300,314.3C302.45,315,303.88,315.25,303.86,315.33Z" transform="translate(-201.6 -144.93)"/><path class="cls-12" d="M417,325.4c-.06,0-.41-.3-1-.93s-1.3-1.57-2.34-2.57c-.51-.51-1.05-1.07-1.62-1.66l-1.95-1.71a27.17,27.17,0,0,0-2.16-1.72,28,28,0,0,0-2.34-1.65,59.32,59.32,0,0,0-14.37-6.72c-.22-.09-1.81-.62-4.09-1.31s-5.28-1.42-8.31-2c-6-1.17-12.09-1.59-12.08-1.89s6.11-.37,12.31.45a79.61,79.61,0,0,1,8.58,1.59c2.36.61,4,1.11,4.25,1.19A56.64,56.64,0,0,1,406.44,314a27.77,27.77,0,0,1,2.32,1.82,26.1,26.1,0,0,1,2.12,1.89l1.87,1.88,1.52,1.81a23.49,23.49,0,0,1,2.08,2.85C416.8,324.94,417,325.36,417,325.4Z" transform="translate(-201.6 -144.93)"/><path class="cls-12" d="M267.21,254c-.17,0-.54-3.07-1-7.72s-1-10.9-1.54-17.18-1-12.63-1.42-17.49c-.1-1.22-.19-2.34-.27-3.35s-.09-1.9-.12-2.66c-.06-1.5-.1-2.45-.11-2.64,0-.78-.17-11-.23-21.06,0-5,0-10,0-13.7s.14-6.18.31-6.18.4,2.45.66,6.16.52,8.67.78,13.68c.5,10,.93,20.22,1,21,0,.2,0,1.14.06,2.65,0,.75,0,1.64.06,2.65l.18,3.35c.25,4.86.58,11.2.9,17.49s.58,12.54.75,17.21S267.38,254,267.21,254Z" transform="translate(-201.6 -144.93)"/><path class="cls-12" d="M309.29,284.87c-.06.1-1.82-1.1-3.33-3.89a14.91,14.91,0,0,1-1.5-5.16,31,31,0,0,1,0-6.17,89.62,89.62,0,0,1,2-11.47c.71-3.14,1.28-5.31,1.34-5.56.13-.49,2-7,4.15-13.24s4.5-12.31,4.77-12.21-1.62,6.29-3.38,12.64-3.42,12.86-3.55,13.35c-.06.25-.68,2.39-1.49,5.48a100.5,100.5,0,0,0-2.36,11.17,31.42,31.42,0,0,0-.28,5.91,14.93,14.93,0,0,0,1.08,4.92A26.52,26.52,0,0,0,309.29,284.87Z" transform="translate(-201.6 -144.93)"/><path class="cls-2" d="M220,286.5q4.29-18.64,10-38.75c4.51-15.73,9.31-30.58,14.25-44.5" transform="translate(-201.6 -144.93)"/><path class="cls-12" d="M244.08,203.19a7.42,7.42,0,0,1-.46,2l-1.55,5.09c-1.3,4.21-3,9.84-4.74,15.53-3.42,11.36-6.55,23-6.75,23.69s-2.94,9.93-5.45,19c-1.25,4.54-2.48,9.05-3.41,12.43A36.53,36.53,0,0,1,220,286.5c-.14,0,.25-2.32.94-5.75s1.69-8,2.77-12.61c2.16-9.22,4.68-18.53,4.89-19.23s3.56-12.31,7.34-23.58c1.88-5.64,3.84-11.2,5.37-15.34.77-2.07,1.43-3.78,1.91-5A8.46,8.46,0,0,1,244.08,203.19Z" transform="translate(-201.6 -144.93)"/><path class="cls-2" d="M353,201q-11.37,42-22.75,84" transform="translate(-201.6 -144.93)"/><path class="cls-12" d="M330.42,285.05c-.55-.15,11.1-45.6,11.48-47s10.55-37.18,11.1-37-8.72,36.15-9.11,37.57S331,285.2,330.42,285.05Z" transform="translate(-201.6 -144.93)"/><path class="cls-2" d="M383.83,231.33a148.8,148.8,0,0,0-19.08,59.42" transform="translate(-201.6 -144.93)"/><path class="cls-12" d="M364.93,290.77c-.14,0-.1-2.14.19-5.33s.86-7.44,1.67-11.69a140.47,140.47,0,0,1,4.49-17.39A133.58,133.58,0,0,1,377,243.07c3-6.19,6.64-11.88,6.88-11.74s-2.9,6.07-5.55,12.35-4.89,12.85-5,13.35a161,161,0,0,0-5,17c-1,4.17-1.77,8.35-2.3,11.49A37,37,0,0,1,364.93,290.77Z" transform="translate(-201.6 -144.93)"/><path class="cls-12" d="M407.4,281.86c0,.05-.31.42-1,.94a8.77,8.77,0,0,1-1.39.83,4.19,4.19,0,0,1-2.1.45,2.39,2.39,0,0,1-1.23-.5,3.13,3.13,0,0,1-.84-1.13,8.67,8.67,0,0,1-.64-2.79,35.37,35.37,0,0,1,.11-6.07A159.42,159.42,0,0,1,403,256.74c.11-.49,1.72-7,3.75-13.17s4.36-12.16,4.63-12.07-1.61,6.19-3.23,12.48-3,12.73-3.14,13.22-2.15,8.54-3.28,16.56a37.09,37.09,0,0,0-.41,5.83,8.43,8.43,0,0,0,.39,2.48,1.71,1.71,0,0,0,1.28,1.21,3.56,3.56,0,0,0,1.77-.22,11.9,11.9,0,0,0,1.39-.61C406.92,282.05,407.35,281.79,407.4,281.86Z" transform="translate(-201.6 -144.93)"/><path class="cls-7" d="M420.88,303" transform="translate(-201.6 -144.93)"/><path class="cls-12" d="M426.18,290c-.14,0-.07-2.44.32-6.08a125.71,125.71,0,0,1,2.17-13.33c1-4.83,2.39-9.64,3.58-13.28s2.14-6.14,2.25-6.42a138.1,138.1,0,0,1,7.22-14.86c1.93-3.43,4-6.72,5.68-9.11s2.86-3.89,3-3.81a29.23,29.23,0,0,1-2.3,4.24c-1.44,2.51-3.33,5.89-5.07,9.37-3.55,6.95-6.38,14.36-6.59,14.93-.11.28-1.11,2.71-2.38,6.28s-2.74,8.26-4,13-2.17,9.51-2.8,13.1A50.19,50.19,0,0,1,426.18,290Z" transform="translate(-201.6 -144.93)"/><path class="cls-12" d="M479.67,285.13a6.55,6.55,0,0,1-.53-1.76c-.28-1.14-.6-2.78-.9-4.77a79.3,79.3,0,0,1,1.41-29.84c.23-1,.48-2,.73-2.82l.63-2.22c.42-1.24.68-2,.73-2.18A80.84,80.84,0,0,1,490,225.3a78.19,78.19,0,0,1,7.21-9.36,22.3,22.3,0,0,1,3.84-3.69,43.37,43.37,0,0,1-3.22,4.2,98.11,98.11,0,0,0-6.59,9.62,86.08,86.08,0,0,0-7.5,16.16l-.76,2.12-.66,2.15c-.27.81-.53,1.73-.77,2.73A82.23,82.23,0,0,0,479,263.86a90.66,90.66,0,0,0,.07,14.65C479.39,282.48,479.83,285.1,479.67,285.13Z" transform="translate(-201.6 -144.93)"/><path class="cls-1" d="M187.67,162.83" transform="translate(-201.6 -144.93)"/><path class="cls-12" d="M508.34,279.69c-.28,0,.17-6.58,1.07-13.2s2.17-13.28,2.26-13.68,1.37-5.67,2.92-10.75,3.31-10,3.58-9.89-1,5.11-2.17,10.26-2.23,10.43-2.32,10.83-1.61,6.95-2.83,13.47S508.62,279.72,508.34,279.69Z" transform="translate(-201.6 -144.93)"/><path d="M465.25,327.63" transform="translate(-201.6 -144.93)"/><path d="M249.92,294.5c1.78,7.9,6.59,23.66,20.5,36.75a67.36,67.36,0,0,0,14.21,10.25" transform="translate(-201.6 -144.93)"/><path d="M800,227.17" transform="translate(-201.6 -144.93)"/><path d="M784.05,255.85c-3.81-6.32-13.24-19.84-30.73-27.36a63.73,63.73,0,0,0-17.9-4.74" transform="translate(-201.6 -144.93)"/><path class="cls-12" d="M535.84,290a7.46,7.46,0,0,1,.1-2c.13-1.25.35-3,.65-5.16.6-4.27,1.54-10,2.63-15.67,2.14-11.43,5.06-22.89,5.25-23.58s2.74-9.78,5.73-18.53c1.47-4.39,3-8.69,4.28-11.89a30.5,30.5,0,0,1,2.27-5.22c.14.05-.51,2.22-1.52,5.49s-2.35,7.63-3.64,12c-2.62,8.85-5,18-5.13,18.64s-3.32,12-5.82,23.34c-1.27,5.65-2.41,11.29-3.26,15.51S536,290.05,535.84,290Z" transform="translate(-201.6 -144.93)"/><path class="cls-12" d="M567.93,289.51a19,19,0,0,1-.16-4.57c.06-2.75.3-6.42.71-10.1a134.85,134.85,0,0,1,2.6-15.19c.1-.45,1.69-6.27,3.8-11.79s4.61-10.73,4.87-10.61-1.8,5.48-3.49,11.08-3.08,11.38-3.18,11.82-2,7.64-3.15,14.89c-.6,3.62-1,7.24-1.36,10A26.15,26.15,0,0,1,567.93,289.51Z" transform="translate(-201.6 -144.93)"/><path class="cls-12" d="M596.93,283.85c-.14,0-.49-2.52-.67-6.35a105.76,105.76,0,0,1,.32-14.16,110.44,110.44,0,0,1,2.21-14.27c.23-1,.44-1.89.62-2.7s.4-1.52.56-2.12c.31-1.21.55-1.95.59-2.1a111.14,111.14,0,0,1,6.55-16.05,103.26,103.26,0,0,1,5.61-9.77,22.41,22.41,0,0,1,3-4.08c.13.08-.89,1.83-2.34,4.49s-3.31,6.26-5,10a124.74,124.74,0,0,0-5.89,16c0,.15-.3.88-.63,2.05-.16.59-.37,1.29-.59,2.08s-.44,1.67-.68,2.63a117.42,117.42,0,0,0-2.61,14,130.2,130.2,0,0,0-1,14C597,281.3,597.08,283.84,596.93,283.85Z" transform="translate(-201.6 -144.93)"/><path class="cls-12" d="M618.35,282.1c-.12-.1,1.41-2,3.51-5a95.2,95.2,0,0,0,6.91-11.41A87.75,87.75,0,0,0,634,253.25c1.15-3.58,1.74-6.12,1.83-6.41s.19-.73.42-1.64.54-2.16.85-3.63a92.05,92.05,0,0,0,1.58-10.67,99,99,0,0,0,.36-10.59,32.57,32.57,0,0,1,0-4.81,19.2,19.2,0,0,1,.8,4.77,73.73,73.73,0,0,1,.29,10.72,83.08,83.08,0,0,1-1.17,10.94c-.26,1.51-.52,2.8-.75,3.74s-.34,1.54-.38,1.69-.76,2.89-2,6.51a82.44,82.44,0,0,1-5.7,12.55,80.08,80.08,0,0,1-7.56,11.21C620.18,280.48,618.45,282.19,618.35,282.1Z" transform="translate(-201.6 -144.93)"/><path class="cls-12" d="M649.4,280.59a14.77,14.77,0,0,1,1.38-2.72,54.22,54.22,0,0,1,4.58-6.63,57.56,57.56,0,0,1,8.07-8.14,61.4,61.4,0,0,1,11.11-7.18c4-2.07,8.23-3.78,12.18-5.36s7.71-3,11-4.11a108.91,108.91,0,0,1,12-3.23,92.73,92.73,0,0,1,10-1.37c1.4-.15,2.91-.17,4.49-.26s3.25-.06,5,0,3.47.1,5.25.28,3.57.3,5.36.56a92.89,92.89,0,0,1,19,4.7c1.25.45,2.38.9,3.38,1.31a26.13,26.13,0,0,1,2.37,1.54,9.2,9.2,0,0,1,1.88,1.54,14.45,14.45,0,0,1-2.1-1.19c-.65-.37-1.51-.89-2.37-1.32s-2.16-.73-3.41-1.12a101.1,101.1,0,0,0-18.94-4c-1.76-.21-3.54-.34-5.29-.42s-3.48-.13-5.16-.16-3.31.06-4.86.12-3,.17-4.4.35a97.81,97.81,0,0,0-9.81,1.49,112.94,112.94,0,0,0-11.83,3c-3.29,1-7,2.37-11,3.89s-8.15,3.13-12.15,5.07a61.51,61.51,0,0,0-11,6.79,58.58,58.58,0,0,0-8.17,7.75,65.63,65.63,0,0,0-4.85,6.33A23.28,23.28,0,0,1,649.4,280.59Z" transform="translate(-201.6 -144.93)"/><path class="cls-12" d="M662.08,289.49c-.08-.15,2.08-1.29,4.94-3.52a32.33,32.33,0,0,0,8.6-10,33.62,33.62,0,0,0,4-12.66,51.68,51.68,0,0,0,.18-6.57c0-.15,0-.75-.1-1.68,0-.46,0-1-.11-1.63s-.17-1.3-.26-2A53.13,53.13,0,0,0,676.7,241a69.36,69.36,0,0,0-4.35-9.63c-1.38-2.52-2.4-4.15-2.26-4.24A19.8,19.8,0,0,1,673,231a57.37,57.37,0,0,1,5,9.52,50.81,50.81,0,0,1,3.09,10.62c.13.76.24,1.47.35,2.11s.11,1.22.16,1.71c.09,1,.14,1.59.15,1.75a49.24,49.24,0,0,1-.36,6.89,34.46,34.46,0,0,1-4.57,13.16,32.29,32.29,0,0,1-13.23,12.11A5.37,5.37,0,0,1,662.08,289.49Z" transform="translate(-201.6 -144.93)"/><path class="cls-2" d="M436.67,248.33" transform="translate(-201.6 -144.93)"/><path class="cls-13" d="M436.67,248.33" transform="translate(-201.6 -144.93)"/><path class="cls-12" d="M457.49,249.08c-.25-.13,1.73-4.49,3.25-9.07s2.68-9.3,2.74-9.59,1.17-4,1.94-7.77,1.29-7.5,1.58-7.48.31,3.83-.14,7.71a67.51,67.51,0,0,1-1.39,8.06,75.47,75.47,0,0,1-3.37,9.61C460.2,245.07,457.74,249.22,457.49,249.08Z" transform="translate(-201.6 -144.93)"/></svg>